<svg xmlns="http://www.w3.org/2000/svg" width="666.667" height="666.667" version="1.0" viewBox="0 0 500 500"><g fill="#CURRENT_COLOR" stroke="none"><path d="M233.7 90.4c-.9.9-2 1.6-2.6 1.6s-1.1.7-1.1 1.5-.6 1.5-1.4 1.5-1.7.8-1.9 1.7c-.4 1.7-.5 1.7-.6 0-.1-2.1-2.1-2.3-2.1-.2 0 .8-.7 1.5-1.5 1.5s-1.5.4-1.5 1c0 .5-1.2 1-2.7 1-5.2 0-7.3 1.1-7.3 3.6v2.4h13c10.9 0 13 .2 13 1.5 0 1.2-1.9 1.5-11.5 1.5H214l.1 3.2c.1 2.4.3 2.7.6 1 .7-3.4 3.3-2.8 3.3.8 0 2.8-.2 3-4.1 3-3.8 0-4-.1-3.7-2.8.3-2.3-.1-2.7-2.2-2.7-2.3 0-2.5.4-2.8 5.8-.2 4.4-.6 5.7-1.7 5.4-.7-.3-1.5.3-1.8 1.4-.4 1.4-1.4 1.9-3.6 1.9-2.6 0-3.1.4-3.1 2.5 0 1.6-.6 2.5-1.5 2.5-1.7 0-2-2.1-.4-3.7.8-.8.8-1.3 0-1.7-.6-.4-1.1-2.3-1.1-4.3 0-2.6.5-3.6 2-4 1.1-.3 2-1.2 2-1.9 0-.8.7-1.4 1.6-1.4 1 0 1.4.6 1 1.5-.4 1 .1 1.5 1.4 1.5 1.7 0 2-.7 2-4.5 0-3.3-.4-4.5-1.5-4.5-.8 0-1.5-.5-1.5-1 0-.6-.7-1-1.5-1-1.8 0-2 2.7-.2 3.3.6.2.9.8.4 1.2-.4.5-1.4 0-2.2-1.1-1.4-1.8-1.5-1.8-4.2 1.3-1.6 1.8-3.4 3.3-4 3.3s-1.7 1.3-2.5 3c-.9 2.1-1.8 2.8-3 2.4-1.5-.4-1.8.1-1.8 2.5 0 2.1-.5 3.1-1.5 3.1-.8 0-1.5.7-1.5 1.5 0 1.1-1.1 1.5-4 1.5-3.3 0-4 .3-4 2 0 1.1-.7 2-1.5 2s-1.5.9-1.5 2-.4 2-1 2c-1.3 0-5 3.7-5 5 0 .5-.4 1-1 1-.5 0-1 1.2-1 2.6 0 1.7-.6 2.8-1.9 3.1-2.2.5-3.1 3.1-3.1 8.5 0 3.5-.7 4.3-3.3 3.9-.5-.1-1.1.7-1.4 1.8s-1.1 2.2-1.9 2.5-1.4 1.4-1.4 2.5q0 2.1-1.5 1.5c-1-.4-1.5 0-1.5 1.5 0 1.6-.6 2.1-2.5 2.1-1.4 0-2.5.4-2.5 1 0 .5 1.8 1 4 1 4 0 5.4 1.5 2.5 2.6-1 .4-1.5 2-1.5 4.4s.5 4 1.5 4.4c1.9.7 2 2.6.1 2.6-.8 0-1.6 1-1.8 2.2-.2 1.7-1.1 2.4-3.1 2.6-3.3.4-2.6 2.2.9 2.2 2 0 2.4.5 2.4 3q0 3 1.5 3c.9 0 1.5.9 1.5 2.5 0 1.8.5 2.5 2 2.5 1.1 0 2 .7 2 1.5s.7 1.5 1.5 1.5c.9 0 1.8 1.2 2.2 3 .3 2 1.2 3 2.3 3 1 0 2.1.6 2.4 1.2.5 1 .7 1 1.2 0 .3-.6 1.4-1.2 2.5-1.2 1.6 0 1.9.7 1.9 4 0 2.9-.4 4-1.5 4-.8 0-1.5.7-1.5 1.5s-.7 1.5-1.5 1.5c-1.1 0-1.5 1.2-1.5 4.5 0 2.5.5 4.5 1 4.5.6 0 1-.7 1-1.5s.7-1.5 1.5-1.5c1 0 1.5-1.1 1.5-3.5 0-2.8.4-3.5 2-3.5s2-.7 2-3c0-2.8.3-3 3.5-3 2.8 0 3.5.4 3.5 2 0 1.1.7 2 1.5 2s1.5-.9 1.5-2c0-1.6.7-2 3.5-2s3.5.4 3.5 2c0 1.1.5 2 1.1 2s1.3-.9 1.6-2c.4-1.4 1.4-2 3.4-2 2.2 0 2.9.5 2.9 2 0 1.1.6 2 1.4 2 .7 0 1.6.9 1.9 2s1 2 1.6 2 1.1-.9 1.1-2c0-1.7.7-2 4.5-2 3.3 0 4.5.4 4.5 1.5 0 .8.7 1.5 1.5 1.5s1.5-.7 1.5-1.5.7-1.5 1.5-1.5q1.5 0 1.5 3c0 2.3.5 3 1.9 3 1 0 2.1-.9 2.4-2 .7-2.8 6.7-2.8 7.4 0 .3 1.1.9 2 1.4 2s.9-.9.9-2c0-1.3.7-2 2-2 1.6 0 2 .7 2 3.4 0 2.1.6 3.6 1.5 4 1.2.4 1.5 2.5 1.5 9.7 0 8.2-.2 9.1-2 9.6-1.7.5-2 1.4-2 6.9 0 5 .3 6.4 1.5 6.4.8 0 1.5.7 1.5 1.5s-.7 1.5-1.5 1.5-1.5.7-1.5 1.5-.7 1.5-1.5 1.5-1.5.7-1.5 1.5c0 1-1 1.5-2.9 1.5-1.6 0-3.1.6-3.5 1.5-.7 1.9-2.6 1.9-2.6 0 0-.8.7-1.5 1.5-1.5s1.5-.7 1.5-1.5q0-1.5 3-1.5t3-1.5c0-.8.7-1.5 1.5-1.5s1.5-.7 1.5-1.5-.7-1.5-1.5-1.5-1.5.7-1.5 1.5q0 1.5-3 1.5t-3 1.5c0 .8-.9 1.5-2 1.5s-2 .7-2 1.5-.7 1.5-1.5 1.5-1.5.7-1.5 1.5q0 1.5-3 1.5c-1.6 0-3 .4-3 .9s-.6 1.1-1.4 1.4c-2.1.8-5.6-.4-5.6-1.9 0-.8-.4-1.4-1-1.4-.5 0-1 .7-1 1.5s-.9 1.5-2 1.5-2-.7-2-1.5-.4-1.5-1-1.5c-.5 0-1 .7-1 1.5 0 2.1-2.8 1.9-3.3-.3-.4-1.6-.5-1.6-.6 0-.1 1.5-1.1 1.8-5.2 1.8-3.1 0-4.8-.4-4.4-1 .8-1.3-.4-5-1.6-5-.5 0-.9 1.3-.9 3 0 1.6-.4 3-1 3-.5 0-1-.7-1-1.5s-.4-1.5-1-1.5c-.5 0-1 .7-1 1.5 0 1.2-1.3 1.5-5.5 1.5-5.4 0-5.5 0-5.5-3 0-1.7-.4-3-1-3-.5 0-1 1.3-1 3v3h-7.5c-6.2 0-7.3-.2-6.9-1.5.4-.8.1-1.5-.5-1.5s-1.1.7-1.1 1.5c0 .9-.9 1.5-2.5 1.5s-2.5-.6-2.5-1.5c0-.8-.4-1.5-1-1.5-.5 0-1 .7-1 1.5 0 .9-.9 1.5-2.5 1.5s-2.5-.6-2.5-1.5c0-.8-.4-1.5-1-1.5-.5 0-1 .7-1 1.5 0 1.2-1.3 1.5-5.5 1.5s-5.5-.3-5.5-1.5c0-.8-.5-1.5-1.1-1.5s-.9.6-.6 1.3c.4 1.1-.9 1.4-5.4 1.6-4.8.2-5.9-.1-5.9-1.3 0-.9-.4-1.6-1-1.6-.5 0-1 .7-1 1.5 0 .9-.9 1.5-2.5 1.5s-2.5-.6-2.5-1.5c0-.8-.4-1.5-1-1.5-.5 0-1 .7-1 1.5 0 1.2-1.3 1.5-6 1.5s-6-.3-6-1.5c0-.8-.4-1.5-1-1.5-.5 0-1 .7-1 1.5s-.9 1.5-2 1.5c-2.3 0-2.7 2.5-.5 3.4 1.9.7 1.9 3.6 0 3.6q-1.5 0-1.5 3c0 2.7.3 3 3 3 1.7 0 3 .4 3 1 0 .5-1.4 1-3.2 1-3.4 0-3.1 1.2.4 1.5s3.4 2.5-.1 2.5H79v6.5c0 5.5.2 6.3 1.6 5.8 1.2-.4 1.5-.1 1.2 1.3-.2 1-1 1.8-1.6 1.6-1.8-.3-1.5 6.5.3 7.2 1.2.4 1.5-.3 1.5-2.9 0-2.4.5-3.5 1.5-3.5.8 0 1.5-.7 1.5-1.5s.9-1.5 2-1.5c1.6 0 2-.7 2-3.5 0-3.6 0-3.6 3.5-2.9 3.3.6 3.5.5 3.5-2 0-1.4.5-2.6 1-2.6.6 0 1 .4 1 1s5.8 1 15.5 1c13.1 0 15.5.2 15.5 1.5 0 1.2 1.4 1.5 6.6 1.5 5.7 0 6.7-.3 7.1-2 .5-1.7 1.4-2 6.9-2 5 0 6.4-.3 6.4-1.5s1.8-1.5 10-1.5 10-.3 10-1.5c0-1.1-1.2-1.5-4.5-1.5s-4.5-.4-4.5-1.5c0-1.2 1.4-1.5 7-1.5s7-.3 7-1.5 1.3-1.5 5.5-1.5 5.5-.3 5.5-1.5q0-1.5 3-1.5c1.8 0 3.3-.6 3.6-1.5.4-1 2-1.5 5-1.5 3.2 0 4.4-.4 4.4-1.5q0-1.5 3-1.5t3-1.5c0-.8.7-1.5 1.5-1.5s1.5.7 1.5 1.5-.7 1.5-1.5 1.5-1.5.7-1.5 1.5-.7 1.5-1.5 1.5-1.5.7-1.5 1.5-.7 1.5-1.5 1.5-1.5.7-1.5 1.5-.7 1.5-1.5 1.5-1.5-.7-1.5-1.5q0-1.5-3-1.5t-3 1.5c0 .8-.9 1.5-2 1.5s-2 .7-2 1.5q0 1.5-3 1.5t-3 1.5c0 .8-.7 1.5-1.5 1.5-.9 0-1.5.9-1.5 2.3 0 1.3-.9 3.4-2 4.7s-2 2.7-2 3.2c0 .4-.7.8-1.5.8s-1.5.6-1.5 1.4c0 .9-1.2 1.6-3.2 1.8-2.5.2-3.4.8-3.6 2.5-.3 2.2-.8 2.3-7.8 2.3-4.3 0-7.4-.4-7.4-1s.4-1 .9-1 1.1-1.4 1.5-3c.5-2.7 1-3 4.1-3 2.4 0 3.5.5 3.5 1.5 0 .8-.9 1.5-2 1.5s-2 .7-2 1.5q0 1.5 3 1.5t3-1.5c0-.8.6-1.5 1.4-1.5s1.6-.7 2-1.5c.3-.9 1.8-1.5 3.6-1.5 2.8 0 3-.2 3-4 0-2.9-.4-4-1.5-4-.8 0-1.5.4-1.5 1s-3.8 1-9.5 1c-8.2 0-9.6.2-10.4 1.9-.7 1.2-2.7 2.1-5.6 2.5-2.9.5-4.5 1.2-4.5 2.2 0 .9-1.1 1.4-3.5 1.4-3.5 0-3.5 0-3.5 4.4 0 4-.2 4.4-3 4.9-1.8.4-3 1.3-3 2.2 0 .8-.7 1.5-1.5 1.5-1.2 0-1.5 1.3-1.5 5.7 0 8.6-.7 10.3-4.1 10.3-2.8 0-2.9.2-2.9 4.5 0 3.3-.4 4.5-1.5 4.5-1.2 0-1.5 1.3-1.5 6 0 3.3-.4 6-1 6-.5 0-1-1.7-1.1-3.8 0-4.9-1.6-12.8-1.8-9.1 0 1.5-.8 2.9-1.6 3.3-1.3.5-1.5-1-1.5-9.9V328h3.5c2.4 0 3.5.5 3.5 1.5 0 .8-.9 1.5-2 1.5s-2 .7-2 1.5.5 1.5 1 1.5c.6 0 1 2.1 1 4.6 0 5.9 2.4 5.5 2.8-.4.3-3.7.6-4.2 2.8-4.2 1.5 0 2.4-.6 2.4-1.5 0-.8-.7-1.5-1.5-1.5s-1.5-.7-1.5-1.5.7-1.5 1.5-1.5c1 0 1.5-1.1 1.5-3.5 0-2.8.4-3.5 2-3.5 1.1 0 2-.6 2-1.4s.7-1.6 1.5-2c.9-.3 1.5-1.9 1.5-4.1 0-2.4.4-3.5 1.5-3.5.8 0 1.5-.5 1.5-1 0-.6-1.6-1-3.5-1-2.4 0-3.5-.5-3.5-1.5 0-1.3-2.3-1.5-14.9-1.5-12.3 0-15 .3-15.5 1.5-.3.9-1.8 1.5-3.5 1.5-2.5 0-3 .5-3.6 3-.5 2.5-1.1 3-3.6 3H85v10c0 8.2.3 10 1.5 10s1.5-1.4 1.5-6.5.3-6.5 1.5-6.5c.8 0 1.5-.9 1.5-2 0-1.3.7-2 2-2 2.3 0 2.7 2.5.5 3.4-1.6.6-2.1 6.6-.5 6.6.5 0 1.2-1.6 1.6-3.5.3-2 1.2-3.5 2-3.5s1.4-.7 1.4-1.5-.7-1.5-1.5-1.5-1.5-.7-1.5-1.5c0-1.4 1.1-1.9 3.8-1.6.6.1 1.2-.5 1.2-1.4 0-1.1 1-1.5 3.5-1.5 2.4 0 3.5.5 3.5 1.5q0 1.5 3 1.5c2.8 0 3 .3 3 3.5 0 2.4.5 3.5 1.5 3.5.8 0 1.5-.7 1.5-1.6s.9-1.8 2-2.1c1.4-.4 2-1.4 2-3.4s.5-2.9 1.6-2.9c1.2 0 1.4 1 1.2 4.7-.3 4.6-.4 4.8-3.5 5.1-2.1.2-3.3.9-3.3 1.8s-1.1 1.4-3 1.4q-3 0-3 1.5c0 1-1.1 1.5-3.5 1.5-2.8 0-3.5.4-3.5 2 0 1.1-.4 2-1 2-.5 0-1 .7-1 1.5q0 1.5-3 1.5c-3.8 0-4.1 2.7-.3 3.2 2.8.3 4.5 2.8 1.9 2.8-1 0-1.6.9-1.6 2.5s-.6 2.5-1.5 2.5c-1 0-1.5 1.1-1.5 3.5s.5 3.5 1.5 3.5 1.5-1.1 1.5-3.5.5-3.5 1.5-3.5c.8 0 1.5-.6 1.5-1.4s.7-1.7 1.6-2c1.2-.5 1.5-1.4 1.1-3.5-.3-1.5-.3-3.8 0-5 .6-2.4 3.3-2.9 3.3-.6 0 .8.7 1.5 1.5 1.5 1.2 0 1.5 1.4 1.5 7s-.3 7-1.5 7c-.8 0-1.5.9-1.5 2s-.7 2-1.5 2c-1.2 0-1.5 1.6-1.5 8s-.3 8-1.5 8c-1.1 0-1.5 1.3-1.5 5.4 0 3.5-.5 6-1.5 7-1.7 1.6-2.1 7.6-.5 7.6.6 0 1-.6 1-1.4 0-2.6 2-2.8 2.9-.4.9 2.2.9 2.2 1.7.3.4-1.1 1.2-2.3 1.8-2.7.7-.5.2-1.5-1.2-2.8-2.9-2.7-2.8-9.3 0-9.8 1.4-.3 1.8.3 1.8 2.7 0 1.7.5 3.1 1 3.1.6 0 1-1.4 1-3 0-1.7-.4-3-1-3s-1-3.8-1-9.5V352h6l-.4 18.7c-.3 12.1-.8 18.9-1.5 19.1-.6.2-1.1 1-1.1 1.8 0 1 1.3 1.4 4.5 1.4h4.5v4c0 2.2.5 4 1 4 1.2 0 .3-6.8-1.1-8.6-.5-.6-.6-1.4-.2-1.7.3-.4-.1-.7-.9-.7-2.1 0-2.8-3-2.8-13.3 0-8 .2-8.7 2-8.7 1.6 0 2 .7 2 3.6 0 2.1.4 3.3 1 2.9.6-.3 1 .1 1 .9 0 1.9 1.6 2.1 2.3.3.4-.9.8-.9 1.5.2.8 1.1 1.4.9 3.1-.8 1.6-1.6 2.1-3.3 2.1-7.6V362h-3.9c-3.3 0-4 .4-4.3 2.2-.4 3-3.8 3.7-3.8.9 0-1.2.4-2.1.9-2.1s1.1-1 1.3-2.3c.3-1.9.9-2.2 4.3-2.2h4l.6-10.5c.4-5.8.7-10.6.8-10.8 0-.1.8-.2 1.6-.2 1.4 0 1.6 3 1.3 25l-.3 25h3.3c2.2 0 3.2-.5 3.2-1.5 0-.8-.7-1.5-1.5-1.5-1.3 0-1.5-3.4-1.5-25s.2-25 1.5-25c.8 0 1.5-.7 1.5-1.5s.7-1.5 1.5-1.5 1.5-.7 1.5-1.5q0-1.5-3-1.5t-3 1.5c0 .8-.7 1.5-1.5 1.5-.9 0-1.5-.9-1.5-2.5 0-1.4.7-2.8 1.5-3.1.8-.4 1.5-1.5 1.5-2.5 0-2.1.7-2.3 10.3-1.9 5.6.2 6.7-.1 6.7-1.4 0-1.4 1.6-1.6 11.5-1.6 9.6 0 11.5-.3 11.5-1.5q0-1.5 3-1.5c1.8 0 3.3-.6 3.6-1.5.4-.9 1.9-1.5 3.5-1.5 1.9 0 2.9-.5 2.9-1.5 0-.8.7-1.5 1.5-1.5s1.5-.7 1.5-1.5.6-1.5 1.4-1.5 1.7-.9 2.1-1.9c.3-1.1 1.2-2.2 2-2.5s1.5-1.2 1.5-2.1c0-.8.7-1.5 1.5-1.5s1.5-.7 1.5-1.5.7-1.5 1.5-1.5 1.5-.7 1.5-1.5.7-1.5 1.6-1.5c1.1 0 1.4.6.8 2.2-.7 2.5-2.2 3.8-4.1 3.8-.8 0-1.3 1.4-1.3 3.5 0 2.3-.5 3.5-1.4 3.5-.8 0-1.7 1.2-2.1 2.7-.8 3.4-2.1 4.3-6.2 4.3-2.4 0-3.3.5-3.3 1.6 0 1.2-.7 1.5-2.6 1.1-2-.3-2.8 0-3.1 1.4-.4 1.4-1.4 1.9-3.8 1.9-2 0-3.5.6-3.9 1.5-.3.9-1.8 1.5-3.6 1.5q-3 0-3 1.5c0 .8-.9 1.5-2 1.5s-2-.7-2-1.5c0-1.2-1.3-1.5-6-1.5s-6 .3-6 1.5-1.3 1.5-5.5 1.5-5.5.3-5.5 1.5c0 .8.7 1.5 1.5 1.5 1.2 0 1.5 2 1.7 11.2l.2 11.3.3-10.8.4-10.7h2.8c3.7 0 5 3.8 2.1 6-1.9 1.4-2 2.6-1.8 22 .2 11.3-.1 21.1-.5 21.7-.5.7-2.6 1.3-4.8 1.3-6.6 0-4.4 1.8 3.2 2.5 8.1.8 9.9 0 7-3.4-1.9-2.2-2-3.8-2-21 0-20.1.4-23.1 2.5-23.1 1 0 1.4-1.4 1.4-5 0-3.8.4-5 1.5-5 1.2 0 1.5 1.4 1.5 6.5s-.3 6.5-1.5 6.5-1.5 1.3-1.5 5.5.3 5.5 1.5 5.5c1.4 0 1.9 1.2 1.6 3.2 0 .5.6.8 1.4.8 1.1 0 1.5-1.2 1.5-4.5s-.4-4.5-1.5-4.5c-.8 0-1.5-.7-1.5-1.5s.6-1.5 1.4-1.5 1.6-.5 1.8-1c.2-.6 1.6-1.2 3.3-1.3 2.1-.1 3 .3 3.3 1.5.2 1.1-.3 1.8-1.2 1.8s-1.6.8-1.6 2c0 1.1.7 2 1.5 2s1.5-.7 1.5-1.5.7-1.5 1.5-1.5 1.5.7 1.5 1.5-.7 1.5-1.5 1.5-1.5.7-1.5 1.5-.7 1.5-1.5 1.5-1.5.9-1.5 2c0 1.6.7 2 3 2 1.9 0 3-.5 3-1.4 0-2.3 3.1-2.9 3.7-.6.7 2.7 4.3 2.7 4.3 0 0-1.3-.7-2-2-2-1.6 0-2-.7-2-3s.4-3 2-3c1.1 0 2-.7 2-1.5s.5-1.5 1-1.5c.6 0 1 3.2 1 7.6 0 4.7-.4 7.3-1 6.9-.5-.3-1-.1-1 .4 0 .6-1.1 1.1-2.5 1.1-2.1 0-2.5.5-2.5 3 0 1.8-.6 3.3-1.5 3.6-.8.4-1.5 1.2-1.5 2s-.7 1.4-1.5 1.4c-1.3 0-1.5 2.1-1.2 13.7l.2 13.8 4.3.3 4.2.3v-12.5c0-7.7.4-12.6 1-12.6s1-2.3 1-5c0-4.9.1-5 3-5h3v-6.5c0-5.1.3-6.5 1.5-6.5 1.3 0 1.5 2.1 1.5 13s.2 13 1.5 13 1.5-2.1 1.5-13 .2-13 1.5-13c.8 0 1.5-.7 1.5-1.5s.9-1.5 2-1.5c1.7 0 2-.7 2-5 0-4.9 2.3-9 5-9 1.5 0 1.2 1.8-.4 2.7-.8.4-1.6 2.8-1.8 5.4-.2 2.8-1.2 5.4-2.3 6.5-1.8 1.9-1.8 1.9 1.8 2.2 2.4.2 3.7.8 3.7 1.8 0 1.9-5.6 1.9-6.4-.1-.3-.8-1.2-1.5-2.1-1.5-1.3 0-1.5 1-1.3 5.2.2 3.6.7 5.2 1.6 5 .6-.1 1.2.7 1.2 1.8s-.7 2-1.5 2c-1.2 0-1.5 1.4-1.5 6.5s-.3 6.5-1.5 6.5c-.8 0-1.5.4-1.5 1 0 .5-1.1 1-2.4 1-3.3 0-3.5.6-2.8 6.9.9 7.3 3.2 8.1 3.2 1.2 0-2.8.5-5.1 1-5.1.6 0 1 4.9 1 12.6 0 6.9-.4 12.3-.8 12-1.1-.7-4.7 3.5-4.8 5.7-.1 1 .6 1.7 1.7 1.7s1.9.7 1.9 1.5c0 2.1 1.8 1.9 2.3-.3.4-1.6.5-1.6.6 0 .1 2.3 1.3 2.3 3.4-.2s2.2-7.6.2-8.4c-1.1-.4-1.5-2.2-1.5-7.6 0-6.3.2-7 2-7 1.1 0 2 .7 2 1.5s.7 1.5 1.5 1.5 1.5-.7 1.5-1.5.7-1.5 1.5-1.5 1.5.7 1.5 1.5.5 1.5 1 1.5c.6 0 1-1.4 1-3 0-2.7-.3-3-3-3s-3-.3-3-3c0-1.7-.4-3-1-3-.5 0-1 .7-1 1.5s-.9 1.5-2 1.5c-1.2 0-2-.7-2-1.6s.9-1.8 2-2.1c1.8-.5 2-1.4 2-9.3 0-6.9.3-8.9 1.5-9.4.8-.3 1.5-1.7 1.5-3.1 0-1.9-.5-2.5-2.1-2.5-2.5 0-2.1-2.2.5-2.6 3.6-.5 4.6.7 4.6 5.7 0 3.5-.4 5.1-1.5 5.5-1.2.5-1.5 2.4-1.5 8.5 0 6.4.3 7.9 1.5 7.9s1.5-1.4 1.5-6.5c0-3.7.4-6.5 1-6.5s1-.9 1-1.9c0-3 1.1-5.1 2.6-5.1 1 0 1.4-1.4 1.4-5 0-3.8-.4-5-1.5-5-1 0-1.5-1-1.5-3.4 0-2.6-.5-3.5-2.1-3.9-2.9-.8-1.4-2.7 2.2-2.7 2.7 0 2.9.3 2.9 3.5 0 2.4.5 3.5 1.5 3.5.9 0 1.5.9 1.5 2.5 0 1.7.5 2.5 1.8 2.5 1.5 0 1.7 1.1 1.7 10.7 0 7.6-.4 10.7-1.2 11-1 .4-1.3-1.6-1.3-7.6 0-4.7-.4-8.1-1-8.1s-1 7.2-1 19.5-.4 19.5-1 19.5c-.5 0-1 .7-1 1.5 0 1 1.1 1.5 3.5 1.5s3.5-.5 3.5-1.4c0-.8-.4-1.6-.9-1.8s-1.2-2.4-1.5-5.1c-.5-3.7-.3-4.9.9-5.3.8-.3 1.5-1.2 1.5-2s.7-1.4 1.5-1.4c1.3 0 1.5-2.1 1.5-12.5s.2-12.5 1.5-12.5 1.5 2.7 1.5 18.5.2 18.5 1.5 18.5c.9 0 1.5.9 1.5 2.5 0 1.4.5 2.5 1 2.5.6 0 1-1.4 1-3 0-1.7-.4-3-1-3s-1-9.2-1-25.5c0-22 .2-25.5 1.5-25.5s1.5 2 1.5 12 .3 12 1.5 12c.8 0 1.5.7 1.5 1.5s-.7 1.5-1.5 1.5q-1.5 0-1.5 3c0 1.6.5 3 1 3 .6 0 1 5.5 1 14.5s-.4 14.5-1 14.5c-.5 0-1 .7-1 1.5 0 1 1.1 1.5 3.5 1.5 1.9 0 3.5-.5 3.5-1 0-.6-.4-1-1-1s-1-5.7-1-15-.4-15-1-15c-.5 0-1-.7-1-1.5s.7-1.5 1.5-1.5q1.5 0 1.5-3t-1.5-3c-1.2 0-1.5-1.8-1.5-9.9 0-9 .2-9.9 2-10.4s2-1.4 2-10.6c0-8.3.3-10.1 1.5-10.1.8 0 1.5-.6 1.5-1.4s.7-1.6 1.5-2c1.2-.4 1.5-2.7 1.5-11.6 0-10.3.1-11 2-11s2-.7 2-15v-15h3c1.7 0 3 .4 3 1 0 .5.7 1 1.5 1 1.1 0 1.5 1.2 1.5 5s.4 5 1.5 5c1 0 1.5 1 1.5 3.4 0 1.9.7 4.1 1.5 5 .8.8 1.5 2.7 1.5 4.1 0 1.8.6 2.9 2 3.2 1.2.3 2 1.4 2 2.7 0 1.4 1 2.6 3 3.4 2.2 1 3 2.1 3 3.9 0 1.6.7 2.7 2 3 1.4.4 2 1.4 2 3.4 0 1.9.5 2.9 1.5 2.9q1.5 0 1.5 3t1.5 3c.8 0 1.5.7 1.5 1.5s.9 1.5 2 1.5c1.3 0 2 .7 2 2 0 1.6.7 2 3 2q3 0 3 1.5c0 .8-.7 1.5-1.5 1.5s-1.5.7-1.5 1.5.7 1.5 1.5 1.5 1.5.7 1.5 1.5-.7 1.5-1.5 1.5-1.5-.7-1.5-1.5-.7-1.5-1.5-1.5-1.5-.7-1.5-1.5-.7-1.5-1.5-1.5-1.5-.7-1.5-1.6-.9-1.8-2-2.1-2-1.2-2-1.9c0-.8-.7-1.4-1.5-1.4-1.1 0-1.5-1.1-1.5-4 0-2.7-.5-4.3-1.5-4.6-.8-.4-1.5-1.2-1.5-2s-.9-1.4-2-1.4c-1.7 0-2-.7-2-4 0-2.9-.4-4-1.5-4-.8 0-1.5-.7-1.5-1.5s-.6-1.5-1.4-1.5-1.6-.7-2-1.5c-.3-.8-1.2-1.5-2.1-1.5q-1.5 0-1.5-3t-1.5-3c-1.2 0-1.5-1.3-1.5-6s-.3-6-1.5-6c-1.1 0-1.5-1.2-1.5-4.5s-.4-4.5-1.5-4.5c-1.3 0-1.5 2.3-1.5 14.5 0 11.7-.3 14.6-1.5 15.2-1.1.7-1.6 3.2-1.9 9.7-.3 6.9-.7 9.1-2 9.8-.9.5-1.6 1.6-1.6 2.3 0 .8-.7 1.5-1.5 1.5-1.1 0-1.5 1.2-1.5 5s.4 5 1.5 5 1.5 1.1 1.5 4-.4 4-1.5 4c-.8 0-1.5.6-1.5 1.4 0 .7-.8 1.6-1.9 1.9-1.6.4-1.9 1.6-2 10.1l-.2 9.6h7.1v6.6c0 6.4-1.3 9.4-3.9 9.4-.6 0-1.1.5-1.1 1.1s.7.8 1.6.5 4.3-.7 7.7-.7c3.4-.1 5.4-.3 4.5-.6-1-.2-1.8-.9-1.8-1.4s-.7-.9-1.5-.9c-1.2 0-1.5-1.8-1.5-10.4 0-8.3.3-10.5 1.5-11 1-.4 1.5-1.9 1.5-4.8 0-4.5-1.7-8.4-2.7-6.1-.2.7-1.1 1.3-1.9 1.3s-1.4.9-1.4 2 .5 2 1 2c.6 0 1 .7 1 1.5 0 1-1.1 1.5-3.5 1.5-3.3 0-3.5-.2-3.5-3.5 0-1.9.5-3.5 1-3.5.6 0 1-.5 1-1 0-1.9 3.4-4.8 6-5.2 2.2-.3 2.6-.9 3.3-6.3.4-3.3.6-7.9.3-10.3-.5-3.7-.3-4.2 1.4-4.2 1.8 0 2 .7 2 6.5 0 3.7.4 6.5 1 6.5s1 .9 1 2-.7 2-1.5 2-1.5.9-1.5 2-.7 2.3-1.5 2.6c-.8.4-1.5 1-1.5 1.5s.7.9 1.5.9c1.1 0 1.5 1.2 1.5 4.9 0 3.4.4 5.1 1.5 5.5 1.3.4 1.5 3.9 1.5 22.1 0 13.7-.4 21.5-1 21.5-.5 0-1 .7-1 1.5s-.4 1.5-1 1.5c-.5 0-1 2.2-1 5 0 5.1 1.5 6.9 2.3 2.8l.4-2.3.8 2.3c.8 2.5 3.5 3 3.5.7 0-.8.5-1.5 1-1.5.6 0 1 .9 1 1.9 0 1.1.5 2.3 1 2.6.6.4 1-1.7 1-5.4 0-3.4-.4-6.1-1-6.1-.5 0-1 1.3-1 3 0 1.6-.4 3-1 3-.5 0-1-.9-1-2 0-1.3-.7-2-2-2-1.1 0-2-.7-2-1.5q0-1.5 3-1.5c1.7 0 3-.5 3-1 0-.6-.4-1-1-1s-1-8.5-1-23.5c0-20.2-.2-23.5-1.5-23.5-1 0-1.5-1.1-1.5-3.5 0-3.9 2.4-4.9 3.5-1.5.3 1.1 1.3 2 2.1 2 1.2 0 1.4 3.3 1.2 21.5-.2 11.8-.1 21.1 0 20.5.2-.5 1-1 1.8-1s1.4-.7 1.4-1.5.6-1.5 1.4-1.5c1 0 1.6 1.3 1.8 4 .4 5.2 2.2 5.2 2.6 0 .2-3.1 0-4-1.2-4-.9 0-1.6-.6-1.6-1.4s-.7-1.6-1.5-2c-1.2-.4-1.5-3.1-1.5-15.1 0-12.2.2-14.5 1.5-14.5.8 0 1.5-.4 1.5-.9s.9-1.1 2-1.4c1.6-.4 2 0 2 1.9 0 1.4.7 2.7 1.5 3 .8.4 1.5 1.4 1.5 2.4s.7 2 1.5 2.4c1.2.4 1.5 2.5 1.5 9.6 0 7.3-.3 9-1.5 9-1.1 0-1.5 1.2-1.5 5.2 0 4.7.1 5 1.4 3.2 1.4-1.8 1.5-1.8 2.1.9.9 3.4 2.5 3.5 2.5.2 0-1.4.5-2.5 1-2.5.6 0 1 .7 1 1.5s.5 1.5 1 1.5c.6 0 1-2.3 1-5 0-4.3-.3-5-2-5-1.8 0-2-.7-2-7.5s.2-7.5 2-7.5c1.6 0 1.9.5 1.4 3-.6 2.6-.4 3 1.5 3 1.2 0 2.1.6 2.1 1.5 0 .8.7 1.5 1.5 1.5 1.9 0 1.9 2.9 0 3.6-.8.4-1.5 1.2-1.5 2s.7 1.4 1.5 1.4 1.5-.7 1.5-1.5.7-1.5 1.5-1.5q1.5 0 1.5 3t1.5 3c1 0 1.5-1 1.5-2.9 0-1.6-.6-3.1-1.5-3.5-.9-.3-1.5-1.8-1.5-3.6q0-3-1.5-3c-.8 0-1.5-.7-1.5-1.5s-.7-1.5-1.5-1.5c-1 0-1.5-1-1.5-2.9 0-2.6-.4-3-3.2-3.3-2.9-.3-3.3-.7-3.6-3.6-.2-2.4.1-3.2 1.2-3.2.9 0 1.6-.9 1.6-2 0-2.6-2-2.6-2.7 0-.6 2.3-3.3 2.7-3.3.5 0-.8-.7-1.5-1.5-1.5s-1.5-.9-1.5-2c0-1.6-.7-2-3.5-2-3.2 0-3.5-.2-3.5-3q0-3-1.5-3c-1.2 0-1.5-1.3-1.5-5.5s-.3-5.5-1.5-5.5c-.8 0-1.5-.9-1.5-2s-.7-2-1.5-2c-1.2 0-1.5-1.3-1.5-5.5 0-3 .5-5.5 1-5.5.6 0 1 1.1 1 2.4 0 3.5 1 5.6 2.6 5.6.9 0 1.4 1.2 1.4 3.5 0 2.4.5 3.5 1.5 3.5.8 0 1.5.7 1.5 1.5s.7 1.5 1.4 1.5c1.1 0 1.6 1.5 1.8 5.2.2 4.1.7 5.4 2.1 5.6 1.4.3 1.7-.4 1.7-3.2 0-3.4.2-3.6 3.5-3.6 3.8 0 4.8 1.9 1.5 2.7-1.6.4-2 1.4-2 4.4 0 2.8.4 3.9 1.5 3.9.8 0 1.5-.9 1.5-2s.7-2 1.5-2 1.5-.7 1.5-1.5.9-1.5 2-1.5c1.8 0 2 .7 2 6.5 0 5.1.3 6.5 1.5 6.5 1.1 0 1.5 1.2 1.5 5s.4 5 1.5 5 1.5-1.2 1.5-5c0-5 1.7-6.9 2.7-3 .6 2.2 3.3 2.8 3.3.7 0-.7 1.5-1.3 3.5-1.4l3.5-.3v35h-3c-2.3 0-3 .4-3 2 0 1.1-.4 2-1 2-.5 0-1 .7-1 1.5 0 2.4 3.9 1.8 6.4-1 1.3-1.4 2.8-2.5 3.4-2.5 1.6 0 2.2-2.7 2.2-10.6 0-4.3.4-7.4 1-7.4s1 4.7 1 12-.4 12-1 12c-.5 0-1 .4-1 1 0 .5 1.8 1 4 1 4 0 5.3-1.3 2.5-2.4-1.2-.4-1.5-3-1.5-14.1 0-11.3-.2-13.5-1.5-13.5-.8 0-1.5-.7-1.5-1.5s-.7-1.5-1.5-1.5c-1.2 0-1.5-1.8-1.5-10.4 0-7.5-.4-10.6-1.2-10.8-.9-.3-1.4-3.5-1.7-9.7-.2-6.7-.7-9.4-1.7-9.8-2.4-.9-1.6-3.3 1.1-3.3 1.6 0 2.5-.6 2.5-1.5 0-.8.9-1.5 2-1.5s2-.7 2-1.5c0-1.1 1.2-1.5 4.5-1.5s4.5.4 4.5 1.5c0 .8.5 1.5 1 1.5.6 0 1 4.2 1 10.5 0 8.9-.2 10.5-1.6 10.5-1.3 0-1.5-1-1.2-5.5.2-3.9-.1-5.5-.9-5.5-.7 0-1.3-.7-1.3-1.5s.7-1.5 1.5-1.5 1.5-.9 1.5-2c0-1.5-.7-2-2.6-2s-2.5-.4-2-1.5c.3-1-.1-1.5-1.3-1.5-2.9 0-2.7 6.6.4 9.4 2.1 2 2.5 3.2 2.5 8.5 0 5.4.2 6.1 1.9 6.1s2 .8 2.3 5.2c.4 7.4 2.8 7.7 2.8.4 0-4.3.3-5.6 1.5-5.6 1 0 1.5 1 1.5 3.4 0 2.1.6 3.6 1.5 4 1.2.4 1.5-.3 1.5-3.4 0-2.2-.4-4-1-4-.5 0-1-.7-1-1.5s-.7-1.5-1.5-1.5c-1.2 0-1.5-1.3-1.5-5.5s.3-5.5 1.5-5.5c1 0 1.5-1.1 1.5-3.5s-.5-3.5-1.5-3.5c-.8 0-1.5-.7-1.5-1.5s.7-1.5 1.5-1.5 1.5.7 1.5 1.5.7 1.5 1.5 1.5c1 0 1.5 1.1 1.5 3.5 0 1.9.5 3.5 1 3.5.6 0 1 .7 1 1.5s-.4 1.5-1 1.5c-.5 0-1 .9-1 2s.5 2 1 2c.6 0 1 7.7 1 21s-.4 21-1 21c-.5 0-1 .7-1 1.5 0 1 1.1 1.5 3.5 1.5 3.4 0 4.6-1.2 2.5-2.5-.6-.4-1-10.5-1-27.1 0-17.4.3-26.3 1-25.9.6.3 1-.3 1-1.4 0-1.2-.4-2.1-1-2.1-.5 0-1-1.4-1-3.1 0-2.1-.6-3.2-1.8-3.6-1-.2-2.2-1.4-2.7-2.6-.9-1.9-1.9-2.2-7.2-2.5-4.6-.2-6.3-.7-6.3-1.7 0-.8-1.3-1.5-3.2-1.7-1.7-.2-3.3-.9-3.6-1.6-.3-.9 1.3-1.2 5.6-1.2 3.4 0 6.2.5 6.4 1.1.2.5 2.2 1.3 4.6 1.6 2.3.3 4.2 1 4.2 1.4 0 .5.7.9 1.5.9s1.5.7 1.5 1.5.7 1.5 1.5 1.5c1.1 0 1.5 1.2 1.5 5v5h3.5c2.4 0 3.5-.5 3.5-1.5 0-.8.7-1.5 1.5-1.5s1.5.7 1.5 1.5c0 .9.9 1.5 2.4 1.5 2.1 0 2.5.6 2.8 3.2.3 3.1.6 3.3 4.6 3.6q4.2.3 4.2 1.8c0 .8.7 1.4 1.5 1.4s1.5.7 1.5 1.5.7 1.5 1.5 1.5c1.2 0 1.5 1.6 1.5 8.5s-.3 8.5-1.5 8.5c-.9 0-1.5.9-1.5 2.5 0 1.8-.5 2.5-2 2.5-1.6 0-2 .7-2 3s.4 3 2 3c1.1 0 2-.4 2-.9s.7-1.1 1.5-1.5c1.3-.5 1.5 1.4 1.5 13.4 0 11.8-.2 14-1.5 14-.8 0-1.5.7-1.5 1.5 0 1.1 1.2 1.5 4.5 1.5s4.5-.4 4.5-1.5c0-.8-.7-1.5-1.5-1.5-1.3 0-1.5-3.9-1.5-29.5V331h-3c-2.3 0-3-.4-3-2 0-1.5-.7-2-2.9-2-1.6 0-3.1-.6-3.5-1.5-.3-.8-1.5-1.5-2.6-1.5s-2-.7-2-1.5c0-.9.9-1.5 2.5-1.5s2.5.6 2.5 1.5c0 .8.7 1.5 1.5 1.5 1.2 0 1.5-1.4 1.5-6.5s.3-6.5 1.5-6.5c.8 0 1.5.7 1.5 1.5s.7 1.5 1.5 1.5c1 0 1.5 1.1 1.5 3.5s-.5 3.5-1.5 3.5c-.8 0-1.5.7-1.5 1.5s.7 1.5 1.5 1.5 1.5.6 1.5 1.4.7 1.6 1.5 2c1 .4 1.5-.1 1.5-1.4 0-1.1-.7-2-1.5-2s-1.5-.7-1.5-1.5.9-1.5 2-1.5 2 .7 2 1.5.5 1.5 1 1.5c.6 0 1-2.3 1-5 0-3.8-.4-5-1.5-5-.8 0-1.5-.7-1.5-1.5q0-1.5 3-1.5t3 1.5c0 .8.5 1.5 1 1.5.6 0 1-.7 1-1.5s.7-1.5 1.6-1.5c1.2 0 1.5 1 1.3 4.7-.3 3.8 0 4.9 1.4 5.1 1.4.3 1.7 2.1 1.9 13l.3 12.7 2.8.3c2.2.3 2.7-.1 2.7-1.7 0-1.2-.7-2.1-1.5-2.1-1.3 0-1.5-2.3-1.5-14.5s.2-14.5 1.5-14.5c.8 0 1.5-.7 1.5-1.5s.7-1.5 1.5-1.5 1.5.7 1.5 1.5-.7 1.5-1.5 1.5c-1.1 0-1.5 1.2-1.5 5s.4 5 1.5 5c1 0 1.5-1.1 1.5-3.5s.5-3.5 1.5-3.5 1.5 1.1 1.5 3.5.5 3.5 1.5 3.5c1.1 0 1.5-1.2 1.5-4.6 0-3.7.4-4.7 2-5.1 2.9-.8 2.5-2-1-2.8-1.6-.4-3-1.3-3-2.1 0-1.1-1.8-1.4-8.5-1.4-6.9 0-8.5-.3-8.5-1.5 0-1.3-3.4-1.5-24.5-1.5s-24.5-.2-24.5-1.5 3.4-1.5 24.5-1.5 24.5.2 24.5 1.5c0 1.2 1.8 1.5 10 1.5 9.3 0 10 .1 10 2 0 1.6.7 2 3 2 2.5 0 3 .4 3 2.5 0 1.4-.7 2.8-1.5 3.1-1.2.5-1.5 2.6-1.5 10 0 7.7.3 9.4 1.5 9.4s1.5-1.4 1.5-6.5c0-3.7.4-6.5 1-6.5s1-.9 1-2c0-1.6.7-2 3-2 2.9 0 3-.1 3-4.9 0-3.9.4-5.1 1.8-5.4 1-.3.6-.5-1-.6-3.6-.1-3.9-3.1-.3-3.1 2 0 2.5-.5 2.5-2.5s-.5-2.5-2.5-2.5c-3.4 0-3.2-2.8.3-3.3l2.7-.4-2.7-.2c-3.5-.1-3.7-2.1-.3-2.1 2.4 0 2.5-.2 2.5-6.5V279h-9.6c-8.1 0-9.5-.2-9-1.5.3-.9 0-1.5-1-1.5s-1.4.6-1 1.5c.4 1.3-.9 1.5-8.4 1.5-7.6 0-8.9-.2-9.3-1.8s-.5-1.6-.6 0-1.2 1.8-8.1 1.8c-6.6 0-8-.3-8-1.6 0-.9-.6-1.4-1.2-1.1-.7.2-1.2 1-1 1.6.1.6-1.1 1.1-2.8 1.1q-3 0-3-1.5c0-.8-.4-1.5-1-1.5-.5 0-1 .7-1 1.5q0 1.5-3 1.5t-3-1.5c0-.8-.4-1.5-1-1.5-.5 0-1 .7-1 1.5 0 1.2-1.4 1.5-7 1.5s-7-.3-7-1.5c0-.8-.4-1.5-1-1.5-.5 0-1 .7-1 1.5 0 1.2-1.4 1.5-6.5 1.5s-6.5-.3-6.5-1.5c0-.8-.4-1.5-1-1.5-.5 0-1 .7-1 1.5 0 1.2-1.4 1.5-6.5 1.5s-6.5-.3-6.5-1.5c0-.8-.4-1.5-1-1.5-.5 0-1 .7-1 1.5 0 2.2-5 2-5-.3-.1-1.6-.2-1.6-1.3 0-1.6 2-12.8 2.9-13.5 1-.2-.7-1.4-1.2-2.6-1.2s-3.3-1.3-4.6-3c-1.4-1.6-3.3-2.9-4.2-3-1 0-1.8-.7-1.8-1.5s-.7-1.5-1.5-1.5-1.5-.7-1.5-1.5-.9-1.5-2-1.5c-1.8 0-2-.7-2-6.5 0-5.1-.3-6.5-1.5-6.5-1.3 0-1.5-2.2-1.5-13.5s.2-13.5 1.5-13.5c.8 0 1.5.9 1.5 2s.7 2 1.5 2 1.5-.9 1.5-2c0-1.6.7-2 3-2s3 .4 3 2c0 1.5.7 2 2.5 2 2.1 0 2.5-.5 2.5-3 0-2.3.4-3 2-3 1.1 0 2 .7 2 1.5s.7 1.5 1.5 1.5 1.5-.7 1.5-1.5c0-1.1 1.2-1.5 4.5-1.5 3.8 0 4.5.3 4.5 2 0 1.1.5 2 1.1 2s1.3-.9 1.6-2 1.2-2 1.9-2c.8 0 1.4-.9 1.4-2 0-1.6.7-2 3-2 1.9 0 3 .5 3 1.4 0 .8.7 1.6 1.5 2 1 .4 1.5-.1 1.5-1.4 0-2.9 7-2.9 7.7 0 .3 1.1.9 2 1.4 2s.9-.9.9-2c0-1.3.7-2 2-2 1.6 0 2 .7 2 3 0 2.6.3 3 2.9 3 2.4 0 2.8-.4 2.7-2.8-.1-1.6-.6-2.6-1.3-2.5-.7.2-1.3-.4-1.3-1.2 0-1 1.1-1.5 3.5-1.5 1.9 0 3.5-.5 3.5-1 0-.6 2.3-1 5-1 5 0 6.7-1.3 3-2.3-1.1-.3-2-1-2-1.7s.9-1.4 2-1.7 2-1.2 2-1.9c0-.8.9-1.4 2-1.4 1.5 0 2-.7 2-2.5 0-1.6.6-2.5 1.5-2.5 1.1 0 1.5-1.2 1.5-5 0-2.9-.5-5-1.1-5-.5 0-.7-.4-.4-1 .3-.5-.6-1.2-2-1.6-3.5-.9-3.3-3.6.3-3.2 2.6.3 2.7.1 3-4.5.2-3.7 0-4.7-1.2-4.7-1 0-1.6-.9-1.6-2.5s.6-2.5 1.5-2.5c2.2 0 1.8-1.7-.5-2.3-1.2-.3-2-1.4-2-2.7 0-1.5-.5-2-1.4-1.7-1 .4-1.6-.2-1.8-1.6-.2-1.2-1-2.2-1.8-2.2-1.1 0-1.6-1.5-1.8-6.3-.3-6.1-.3-6.2-3.2-6.2-2.7 0-3-.3-3-3 0-1.7-.4-3-1-3-.5 0-1-.9-1-2.1 0-1.1-.4-1.8-.8-1.5-1.1.7-4.2-3-4.2-4.9q0-1.5-3-1.5c-2.3 0-3-.4-3-2 0-1.1-.6-2-1.4-2s-1.7-.6-1.9-1.3q-.6-1.5-.6 0c-.1.7-.8 1.3-1.6 1.3-.7 0-1.9.8-2.4 1.7-.9 1.6-1.2 1.6-2.2.3-.8-1.1-1.2-1.2-1.6-.3-.2.7-2 1.3-3.9 1.3-3.1 0-3.4-.3-3.4-3 0-1.7.5-3 1-3 .6 0 1-.7 1-1.5s-.7-1.5-1.6-1.5c-.8 0-1.3-.4-1-.9s-.3-1.1-1.4-1.4c-2.4-.6-2.9-5.7-.5-5.7.8 0 1.5-.7 1.5-1.5s-.7-1.5-1.5-1.5-1.5-.5-1.5-1c0-.6-1.3-1-2.9-1-2.4 0-3-.5-3.4-3-1-5-2.7-3.4-2.7 2.5v5.5h-3.5c-3.4 0-3.5-.1-3.5-4 0-3.4-.3-4-2-4-1.2 0-2 .6-1.9 1.2.5 3.8-.2 6.8-1.6 6.8q-1.5 0-1.5 3t-1.5 3c-1.2 0-1.5-1.3-1.5-6s-.3-6-1.5-6c-.8 0-1.5-.5-1.5-1 0-.6.7-1 1.5-1s1.5-.7 1.5-1.5c0-1.2-1.3-1.5-6-1.5s-6 .3-6 1.5c0 .8-.7 1.5-1.5 1.5s-1.5-.7-1.5-1.5-.9-1.5-2-1.5c-1.8 0-2 .7-2 8.5 0 6.9-.3 8.5-1.5 8.5q-1.5 0-1.5-3c0-2.3-.4-3-2-3-1.7 0-2 .7-2 4 0 2.9-.4 4-1.5 4q-1.5 0-1.5 3t1.5 3c.8 0 1.5.7 1.5 1.5s-.7 1.5-1.5 1.5c-1.3 0-1.5 2.3-1.5 15.1 0 11.6.3 15 1.3 14.7.6-.3 1.4-1.8 1.7-3.4.5-3 3-4.6 3-1.9 0 .7.7 1.8 1.6 2.3s1.4 1.5 1 2.1-1.2.9-1.7.6c-.5-.4-.9 5-.9 13.4 0 11.9-.2 14.1-1.5 14.1s-1.5-2-1.5-12.3v-12.3l-3-1.1-3-1.1V122h-10c-8.2 0-10 .3-10 1.5 0 .8-.7 1.5-1.5 1.5s-1.5-.7-1.5-1.5q0-1.5-3-1.5c-1.6 0-3-.4-3-.9 0-1.1 10.9-2.1 22.8-2.1h9.2v-9.5c0-7.8-.3-9.5-1.5-9.5q-1.5 0-1.5-3c0-2.2-.5-3-1.7-3-1.5 0-1.4-.2.3-1.4 1.4-1.1 1.6-1.8.8-2.6s-1.5-.7-2.7.4m2.3 8.1c0 .8-.4 1.5-1 1.5-.5 0-1-.7-1-1.5s.5-1.5 1-1.5c.6 0 1 .7 1 1.5m-8 3.6c0 .5-1.6.9-3.5.9-4.1 0-4.7-1.7-.7-2.2 3.1-.4 4.2-.1 4.2 1.3m5-.6c0 .8-.7 1.5-1.5 1.5-1.6 0-2-1.2-.8-2.3 1.1-1.2 2.3-.8 2.3.8m30 6c0 .8.5 1.5 1 1.5 1.5 0 1.2 2.9-.4 4.6-2.9 2.8-8.6.8-8.6-3 0-.9.5-1.6 1-1.6.6 0 1-.7 1-1.5q0-1.5 3-1.5t3 1.5m-31 6.4c0 4 0 4-3.7 3.7-3.5-.2-3.8-.4-3.8-3.1 0-2.6.4-3.1 3.5-3.6 1.9-.4 3.6-.7 3.8-.8.1 0 .2 1.7.2 3.8m5 .2c0 2.8-.4 3.9-1.2 3.7-2.4-.8-2.2-7.8.2-7.8.5 0 1 1.8 1 4.1m-14 .5c0 4.5-2.4 4.2-2.8-.4-.2-2.4.1-3.2 1.2-3.2 1.2 0 1.6 1 1.6 3.6m70.7-1.1c-1 .7-1.7 1.7-1.7 2.4 0 .6-.7 1.1-1.5 1.1-2.3 0-1.8-3.4.8-4.6 2.8-1.3 4.6-.5 2.4 1.1M195 113c0 .5-.4 1-1 1-.5 0-1-.5-1-1 0-.6.5-1 1-1 .6 0 1 .4 1 1m61 5c0 1.1-.7 2-1.5 2s-1.5-.9-1.5-2 .7-2 1.5-2 1.5.9 1.5 2m8 .6c0 1.6-1.6 1.9-2.5.4-.8-1.3.4-3.2 1.6-2.5.5.4.9 1.3.9 2.1m4-.6c0 1.1-.4 2-.9 2-1.4 0-2.3-1.8-1.6-3 1-1.7 2.5-1.1 2.5 1m15 1.5c0 1.9.5 3.5 1 3.5.6 0 1-1.6 1-3.5 0-2.4.5-3.5 1.5-3.5s1.5 1.1 1.5 3.5c0 3 .3 3.5 2.4 3.5 2.2 0 2.4.4 2.5 6l.1 6h-13v-4c0-4 0-4 3.9-4 3.6 0 4 .3 4.4 2.7.4 2.6.4 2.6.6-.5.1-3.2 0-3.2-4.4-3.2H280v-5c0-3.8.4-5 1.5-5 1 0 1.5 1.1 1.5 3.5m-94-1.5c0 .5-.4 1-1 1-.5 0-1-.5-1-1 0-.6.5-1 1-1 .6 0 1 .4 1 1m71 .6c0 1.7-2.2 1.4-2.8-.4-.2-.7.3-1.2 1.2-1.2s1.6.7 1.6 1.6m18 0c0 1.7-2.2 1.4-2.8-.4-.2-.7.3-1.2 1.2-1.2s1.6.7 1.6 1.6m14 1.9c0 .9-.6 1.2-1.5.9-.8-.4-1.5-1-1.5-1.5s.7-.9 1.5-.9 1.5.7 1.5 1.5M185 124c0 2.1-1.5 2.7-2.5 1-.7-1.2.2-3 1.6-3 .5 0 .9.9.9 2m4 0c0 2.1-1.5 2.7-2.5 1-.7-1.2.2-3 1.6-3 .5 0 .9.9.9 2m61 0c0 1.1-.7 2-1.5 2s-1.5-.9-1.5-2 .7-2 1.5-2 1.5.9 1.5 2m21-.1c0 1.6-.9 1.9-8.2 2-9.4.1-11.8-.4-11.8-2.5 0-1.1 2-1.4 10-1.4 9.1 0 10 .2 10 1.9m4.1-.7q0 1.5.6 0c.9-2.3 2.3-1.2 2.3 1.8 0 1.6-.4 3-1 3-.5 0-1-.7-1-1.5s-.9-1.5-2-1.5-2-.7-2-1.5c0-1.8 3-2 3.1-.3m21.1 2c-1.5 1.5-2.6.4-1.8-1.8.5-1.3.9-1.5 1.8-.6s.9 1.5 0 2.4m-72.2 1.3c0 .8-.6 1.5-1.4 1.5s-1.6.6-1.9 1.4c-.8 2.1-6.1 1.4-6.6-.9-.2-1.4.2-1.7 1.8-1.2q2.1.45 2.1-.9c0-.9 1.1-1.4 3-1.4q3 0 3 1.5m9 1c0 1.6-.6 2.5-1.5 2.5-.8 0-1.5-.5-1.5-1 0-.6-.9-1-2-1s-2-.7-2-1.5c0-1 1.1-1.5 3.5-1.5 3.1 0 3.5.3 3.5 2.5m-22 17.4c0 16.4-.1 16.9-2.2 18.4l-2.3 1.5 3.8 3.5c3.8 3.6 5 7.7 2.2 7.7-.8 0-1.5-.7-1.5-1.5 0-1.3-2.4-1.5-15.5-1.5s-15.5-.2-15.5-1.5c0-.8-.9-1.5-2-1.5s-2 .7-2 1.5-.9 1.5-2 1.5-2-.5-2-1.1.9-1.3 2-1.6c2.5-.7 2.7-5.4.4-7.7-1.4-1.5-1.4-1.6 0-1.6.9 0 1.6.7 1.6 1.5s.7 1.5 1.5 1.5 1.5.7 1.5 1.5.6 1.5 1.4 1.5c.7 0 1.6.9 1.9 2 .4 1.7 1.4 2 6.6 2 5.4 0 6.1-.2 6.1-2 0-1.1-.7-2-1.5-2-1.1 0-1.5-1.2-1.5-5s-.4-5-1.5-5c-.8 0-1.5-.7-1.5-1.6 0-1.3-1.1-1.5-6.5-1.2-4.7.2-6.5 0-6.5-1 0-.7 1.4-1.2 3.5-1.2 3.4 0 3.5-.1 3.5-4 0-2.7-.4-3.9-1.2-3.8-.9.2-1.4-1.7-1.6-6.5-.2-5.5 0-6.7 1.3-6.7.8 0 1.5-.5 1.5-1 0-.6.9-1 2-1s2 .4 2 1c0 .5.7 1 1.5 1 1.2 0 1.5 1.4 1.5 6.4 0 5.6-.3 6.6-2 7.1-1.5.5-2 1.5-2 4.1 0 2.7.4 3.4 2 3.4 1.1 0 2 .7 2 1.6 0 .8.5 1.2 1 .9.6-.3 1 .1 1 .9 0 .9.7 1.6 1.5 1.6 1.1 0 1.5 1.2 1.5 5s.4 5 1.5 5c.8 0 1.5.7 1.5 1.5 0 1.6 3.6 2.8 7.1 2.3 2.7-.3 4-3.8 1.5-3.8-.9 0-1.6-.8-1.6-2 0-1-.9-2.4-2-3-1.9-1-2-1.9-1.8-12.8.3-10.2.5-11.7 2.1-12 1.2-.2 1.7.3 1.7 1.7 0 1.2.5 2.1 1 2.1.6 0 1 2.6 1 5.9s-.4 6.3-1 6.6c-1.6 1-1.2 6.5.5 6.5 1.3 0 1.5-2.3 1.5-14.5V131h-5c-3.8 0-5-.4-5-1.5 0-1.2 1.4-1.5 6.5-1.5h6.5zm39-15.4c0 .8-.7 1.5-1.5 1.5s-1.5-.7-1.5-1.5.7-1.5 1.5-1.5 1.5.7 1.5 1.5m21 0c0 1.2-1.8 1.5-10 1.5s-10-.3-10-1.5 1.8-1.5 10-1.5 10 .3 10 1.5m4 0c0 .8-.7 1.5-1.5 1.5s-1.5-.7-1.5-1.5.7-1.5 1.5-1.5 1.5.7 1.5 1.5m22 0c0 .8-.7 1.5-1.5 1.5s-1.5-.7-1.5-1.5.7-1.5 1.5-1.5 1.5.7 1.5 1.5m-121 3c0 .8-.9 1.5-2 1.5s-2-.7-2-1.5.9-1.5 2-1.5 2 .7 2 1.5m138 0c0 .8-.7 1.5-1.5 1.5s-1.5-.7-1.5-1.5.7-1.5 1.5-1.5 1.5.7 1.5 1.5m-97 1c0 .8-.7 1.5-1.5 1.5s-1.5-.7-1.5-1.5.7-1.5 1.5-1.5 1.5.7 1.5 1.5m16 0c0 .8-.7 1.5-1.5 1.5s-1.5-.7-1.5-1.5.7-1.5 1.5-1.5 1.5.7 1.5 1.5m-31.2 1.2c.2.9-.8 1.3-3.2 1.3-3.4 0-4.4-.8-2.9-2.4 1.1-1.1 5.6-.2 6.1 1.1m72.2-.1c0 1.1-2.4 1.4-12 1.4-11.3 0-12 .1-12 2 0 1.1-.7 2-1.5 2-1.1 0-1.5-1.1-1.5-3.5v-3.6l13.5.2c10.9.1 13.5.4 13.5 1.5m4 .4c0 .5-.4 1-1 1-.5 0-1-.5-1-1 0-.6.5-1 1-1 .6 0 1 .4 1 1m26.5 0c-.3.5-1.4 1-2.3 1.1-1.4 0-1.3.3.6 1.6 2.7 1.9 2.8 3.3.2 3.3-1.1 0-2 .7-2 1.5s.9 1.5 2 1.5 2-.5 2-1c0-.6.7-1 1.5-1 1.1 0 1.5-1.1 1.5-4s.4-4 1.5-4c.8 0 1.5.7 1.5 1.5 0 .9.6 1.2 1.6.8 1.2-.4 1.5-.1 1.2 1.3-.2 1-1 1.8-1.6 1.6-.8-.1-1.2 1.2-1.2 3.8 0 2.9.4 4 1.5 4 .8 0 1.5-.7 1.5-1.5s.7-1.5 1.5-1.5 1.5-.5 1.5-1c0-.6.6-1 1.4-1s1.6-.7 2-1.5c.3-.8 1.2-1.5 2.1-1.5 1.2 0 1.4.8.9 4.2-1 7.1-.5 6.8-10.4 6.8-5.3 0-9 .4-9 1 0 .5-.7 1-1.5 1-.9 0-1.5.9-1.5 2.4 0 1.6-.7 2.6-2.1 2.9-3.3.9-1.7 3.2 2.4 3.5 2.4.2 3.7.8 3.7 1.8 0 .8.7 1.4 1.5 1.4q1.5 0 1.5 3c0 2.7-.3 3-3 3q-3 0-3 1.5c0 1.2-2 1.5-12 1.5h-12v3c0 2.9-.2 3-4.5 3-3.3 0-4.5.4-4.5 1.5 0 .8-.9 1.5-2 1.5-1.6 0-2 .7-2 3q0 3-1.5 3c-.8 0-1.5.7-1.5 1.5s-.4 1.5-1 1.5c-.5 0-1-1.4-1-3q0-3 1.5-3c1.2 0 1.5-1.8 1.5-10.5 0-8.5.3-10.5 1.5-10.5.8 0 1.7-1.4 2.1-3.5.9-4.9 2.4-4.4 2.4.9 0 3.5-.4 4.5-2 4.9-1.7.4-2 1.4-2 6.6 0 5.3.2 6.1 1.9 6.1 1 0 2.1-.7 2.5-1.5.3-.9 1.8-1.5 3.7-1.5 3.1 0 3.1 0 2.7-4.5-.3-4.7 1.5-6.4 2.5-2.4.6 2.4 4.2 2.3 4.2-.1 0-2.2 5.3-2.1 5.8.2.4 1.5 1.6 1.8 6.7 1.8 5.3 0 6.3-.3 6.7-2 .3-1.1 1.2-2 1.9-2 .8 0 1.4-.7 1.4-1.5 0-1.1-1.1-1.5-4-1.5s-4 .4-4 1.5c0 .9-.9 1.5-2.5 1.5-1.4 0-2.5-.5-2.5-1 0-.6.5-1 1-1 .6 0 1-1.6 1-3.5s-.4-3.5-1-3.5c-.5 0-1-1.4-1-3 0-3.1 1.6-4.1 2.6-1.5 1 2.5 3.4 1.7 3.4-1 0-2.3-.4-2.5-4.5-2.5s-4.5.2-4.5 2.5c0 1.4-.6 2.5-1.2 2.5-.7 0-2.3.3-3.5.6-1.7.5-2.3.2-2.3-1 0-.9.8-1.6 2-1.6 1.1 0 2-.7 2-1.5 0-1-1.1-1.5-3.5-1.5s-3.5-.5-3.5-1.5c0-1.2 1.9-1.5 11-1.5s11 .3 11 1.5c0 1.7.2 1.8 2.4.9 1.4-.5 1.3-.9-.7-2.8-2.1-1.9-3.2-2.1-12.5-1.8l-10.2.4V137h7.6c5.4 0 8-.4 9-1.5 1.7-1.7 8.9-2.1 7.9-.5m-80.5 3.5c0 1.1-1.2 1.5-5 1.5s-5-.4-5-1.5 1.2-1.5 5-1.5 5 .4 5 1.5m4.8-.3c-.3.7-1.1 1.3-1.8 1.3s-1.5-.6-1.7-1.3c-.3-.7.4-1.2 1.7-1.2s2 .5 1.8 1.2m4.2.3c0 .8-.7 1.5-1.5 1.5s-1.5-.7-1.5-1.5.7-1.5 1.5-1.5 1.5.7 1.5 1.5m-67 2c0 .8-.7 1.5-1.5 1.5s-1.5-.7-1.5-1.5.7-1.5 1.5-1.5 1.5.7 1.5 1.5m10.4 1c.4 1.4 1.1 2.5 1.6 2.5.6 0 1 1.4 1 3.1 0 3.1 0 3.1-5 2.7-3.5-.2-5 .1-5 .9 0 .7-.7 1.3-1.5 1.3-.9 0-1.5-.9-1.5-2.5 0-2.1-.5-2.5-3-2.5-1.6 0-3-.5-3-1 0-.6 1.4-1 3-1 1.7 0 3 .4 3 .9s.9 1.1 2 1.4c1.8.5 2 0 2-3.9 0-4.2.1-4.4 2.9-4.4 2.2 0 3 .6 3.5 2.5m94 2.2c.3 2.6.3 5-.1 5.4-.5.4-4.1.5-8 .2l-7.3-.6V139h14.7zm4.6-1.2c0 .8-.7 1.5-1.5 1.5-1.6 0-2-1.2-.8-2.3 1.1-1.2 2.3-.8 2.3.8m-80 2.6c0 3.8-2.4 3.5-2.8-.4-.2-1.9.1-2.7 1.2-2.7s1.6 1 1.6 3.1m29-1.6c0 1.1-1.2 1.5-4.9 1.5-4.7 0-6.8-.9-5.4-2.4.3-.3 2.8-.6 5.5-.6 3.6 0 4.8.4 4.8 1.5m4.8-.3c-.3.7-1.1 1.3-1.8 1.3s-1.5-.6-1.7-1.3c-.3-.7.4-1.2 1.7-1.2s2 .5 1.8 1.2m5 0c-.7 1.9-3.8 2.2-3.8.4 0-1 .9-1.6 2.1-1.6s1.9.5 1.7 1.2m18.2.3c0 .8-.4 1.5-1 1.5-.5 0-1 1.3-1 3v3h10.6c9.5 0 10.5.2 10.2 1.7-.3 1.6-1.8 1.8-12.1 2.1l-11.7.3v-6.6c0-6.3.1-6.5 2.5-6.5 1.6 0 2.5.6 2.5 1.5m78 2.5c0 .5-.4 1-1 1-.5 0-1-.5-1-1 0-.6.5-1 1-1 .6 0 1 .4 1 1m-106 2.5c0 1.1-1.2 1.5-5 1.5s-5-.4-5-1.5 1.2-1.5 5-1.5 5 .4 5 1.5m5 0c0 .8-.6 1.5-1.4 1.5-1.7 0-2.8-1.4-1.9-2.4 1.2-1.2 3.3-.6 3.3.9m4.5-.5c.4.6 1.1.8 1.6.5.5-.4.9.1.9 1 0 1.2-.5 1.5-1.6 1.1-.9-.3-2.2-.6-3-.6s-1.4-.7-1.4-1.5c0-1.7 2.5-2 3.5-.5m41.5 0c0 .5-.7 1-1.5 1s-1.5-.5-1.5-1c0-.6.7-1 1.5-1s1.5.4 1.5 1m-77 1.5c0 .8-.4 1.5-1 1.5-.5 0-.7-.7-.4-1.5.4-.8.8-1.5 1-1.5s.4.7.4 1.5m128.5-.5c-.3.5-1 1-1.6 1-.5 0-.9-.5-.9-1 0-.6.7-1 1.6-1 .8 0 1.2.4.9 1M163 152.6c0 2.4.3 2.6 3 2 2.3-.4 3-.2 3 1 0 .9.9 1.8 2 2.1 3 .8 2.4 2.3-1 2.3-1.6 0-3-.4-3-.9 0-.6-1.7-1.1-3.7-1.3-3.7-.3-3.8-.4-3.8-4 0-3 .4-3.8 1.8-3.8 1.2 0 1.7.8 1.7 2.6m171 1.4c0 3.3-.3 4-2 4-1.6 0-2 .7-2 3q0 3-1.5 3c-1.1 0-1.5-1.2-1.5-4.5s.4-4.5 1.5-4.5c1.3 0 2-1.8 1.6-4.3 0-.4.8-.7 1.9-.7 1.7 0 2 .7 2 4m-110.3 5.2.1 6.8H213v-6.3c0-3.5.3-6.7.7-7.1s2.8-.6 5.3-.4l4.5.3zm56.3-3.7c0 3.6-1.5 4.4-5.4 2.9-3.5-1.4-1.1-6.4 3.1-6.4 2 0 2.3.5 2.3 3.5m34-2c0 .8-.7 1.5-1.5 1.5s-1.5-.7-1.5-1.5.7-1.5 1.5-1.5 1.5.7 1.5 1.5m-116 3.1c0 .9-.5 1.4-1.2 1.2-1.8-.6-2.1-2.8-.4-2.8.9 0 1.6.7 1.6 1.6m38-.1c0 .8-.4 1.5-.9 1.5-1.3 0-2.2-1.6-1.4-2.4 1.1-1.1 2.3-.6 2.3.9m55-.5c0 .5-.5 1-1.1 1-.5 0-.7-.5-.4-1 .3-.6.8-1 1.1-1 .2 0 .4.4.4 1m19.8.9c.3.8-.1 1.2-.9.9-.7-.2-1.5-1-1.7-1.7-.3-.8.1-1.2.9-.9.7.2 1.5 1 1.7 1.7m-81.2 9.2c.1 15.9.3 16.9 1.9 16.9.9 0 1.5.9 1.5 2.5 0 2.7-1.5 3.4-2.4 1-.3-.8-1.2-1.5-2.1-1.5-.8 0-1.5-.7-1.5-1.5s-.7-1.5-1.5-1.5-1.5-.4-1.5-.9.7-1.1 1.5-1.5c1.2-.4 1.5-2.8 1.5-12.2 0-8.8.3-11.5 1.3-11.1.8.2 1.2 3.2 1.3 9.8m30.2-5.5c.2 2.5-.1 3.3-1.7 3.7-2 .5-2.1 1.2-2.1 12.6 0 7.4-.4 12.1-1 12.1s-1-4.7-1-12c0-9.8-.3-12.2-1.5-12.6-.9-.4-1.5-1.9-1.5-4.1 0-3.4 0-3.4 4.3-3.1 3.9.3 4.2.5 4.5 3.4m5.2-1.5c0 .5-.7.9-1.5.9-1.5 0-2-1.2-.9-2.3.8-.8 2.4.1 2.4 1.4m-86.2 0c-.2.6-.8 1-1.3 1s-1.1-.4-1.3-1 .4-1.1 1.3-1.1 1.5.5 1.3 1.1m6.2-.1c0 .5-.4 1-1 1-.5 0-1-.5-1-1 0-.6.5-1 1-1 .6 0 1 .4 1 1m122 0c0 .5-.4 1-1 1-.5 0-1-.5-1-1 0-.6.5-1 1-1 .6 0 1 .4 1 1m10-.5c0 .3-.6 1.5-1.2 2.6-1 1.7-1 2.3 0 2.6 1.5.6 1.6 3.5 0 5.1-.7.7-2.2 1.2-3.5 1.2-2 0-2.3-.5-2.3-4.1 0-3.2.4-4.2 2-4.6 1.1-.3 2-1.2 2-1.9 0-.8.7-1.4 1.5-1.4s1.5.2 1.5.5m6.6 2.5c-.1 2.6-.5 3-2.8 3-2.4 0-2.8-.4-2.8-3s.3-3 2.9-3c2.5 0 2.9.3 2.7 3m-38.6-1c0 .5-.4 1-1 1-.5 0-1-.5-1-1 0-.6.5-1 1-1 .6 0 1 .4 1 1m-6.5 2c0 .7-.6 1.5-1.2 1.7-.8.3-1.3-.4-1.3-1.7s.5-2 1.3-1.8c.6.3 1.2 1.1 1.2 1.8M166 165c0 .5.7 1 1.5 1 1 0 1.5 1.1 1.5 3.5 0 3.3-.2 3.5-3.4 3.5-4.1 0-5.6-2.8-3.5-6.6 1.2-2.4 3.9-3.3 3.9-1.4m-10.5 1c.3.5.1 1-.4 1-.6 0-1.1.7-1.1 1.5s.5 1.5 1 1.5c.6 0 1 .7 1 1.6 0 4.3-7.3 6.2-8.3 2.2-.8-3.1.2-6.8 1.9-6.8.8 0 1.4-.5 1.4-1 0-.6.9-1 1.9-1 1.1 0 2.3.4 2.6 1m181.3 4.2c-.4 3.3-1.4 5.2-4.2 8l-3.8 3.8H311v6h-9.7c-6.6 0-9.3.3-8.3 1 1.2.7.8 1.1-1.7 1.6-1.8.4-3.3 1.3-3.3 2 0 .8-.7 1.4-1.5 1.4-1 0-1.5 1-1.5 3.1 0 1.9-.4 2.8-1.1 2.4-.6-.4-1.3.2-1.6 1.4s-1.2 2.1-1.9 2.1c-.8 0-1.4.9-1.4 2s-.7 2-1.5 2q-1.5 0-1.5-3t1.5-3c.8 0 1.5-.7 1.5-1.5s.9-1.9 2-2.5c1.2-.6 2-2.1 2-3.5 0-1.6.6-2.5 1.5-2.5.8 0 1.5-.7 1.5-1.5s.7-1.5 1.5-1.5 1.5-.7 1.5-1.5.7-1.5 1.5-1.5 1.5-.7 1.5-1.5c0-2.2 2.1-1.8 2.7.5.6 2.2 1.6 2.3 8.7 1.4 4.3-.6 4.6-.9 4.6-3.5V179h8c6.4 0 8-.3 8-1.5 0-.8.5-1.5 1-1.5.6 0 1 .7 1 1.5 0 1.7 3.5 2 4.5.4.4-.6-.2-1.3-1.4-1.6-2.5-.6-3-6-.6-6.9.8-.4 1.5-1.2 1.5-2 0-.9 1.2-1.4 3.6-1.4h3.7zm-113-1.4c.2.7-.3 1.2-1.2 1.2s-1.6-.7-1.6-1.6c0-1.7 2.2-1.4 2.8.4m-4 .4c-.6 1.8-2.8 2.1-2.8.4 0-.9.7-1.6 1.6-1.6s1.4.5 1.2 1.2m100.2 2.3c0 .8-.4 1.5-1 1.5-.5 0-1-.7-1-1.5s.5-1.5 1-1.5c.6 0 1 .7 1 1.5M179 175c0 .5-.7 1-1.5 1s-1.5-.5-1.5-1c0-.6.7-1 1.5-1s1.5.4 1.5 1m163 2.4c0 .8-.5 1.8-1 2.1-.6.4-.8 1.1-.5 1.6.4.5-.1.9-.9.9-1.1 0-1.6-.9-1.6-3 0-2.3.4-3 2-3 1.1 0 2 .6 2 1.4m-153 .6c0 .5 1.4 1 3 1 2.7 0 3 .3 3 3s.3 3 3 3 3 .3 3 3c0 1.6-.4 3-1 3-.5 0-1-.7-1-1.5 0-1.1-1.1-1.5-3.6-1.5-2.8 0-3.5-.3-3-1.5.8-2.1-.3-4.5-2-4.5-.8 0-1.4-.7-1.4-1.5s-.7-1.5-1.5-1.5-1.5-.5-1.5-1c0-.6.7-1 1.5-1s1.5.4 1.5 1m20.5 0c.3.5.1 1-.4 1-.6 0-1.1-.5-1.1-1 0-.6.2-1 .4-1 .3 0 .8.4 1.1 1m91.5 0c0 .5-.4 1-1 1-.5 0-1-.5-1-1 0-.6.5-1 1-1 .6 0 1 .4 1 1m-119 4c0 2.8.3 3 3.5 3 2.4 0 3.5.5 3.5 1.5 0 1.1-1.2 1.5-4.5 1.5-4.3 0-4.5-.1-4.5-3v-3h-8.5c-6.9 0-8.5-.3-8.5-1.5s1.7-1.5 9.5-1.5h9.5zm116-.9c0 .5-.7.9-1.5.9-1.5 0-2-1.2-.9-2.3.8-.8 2.4.1 2.4 1.4m-145-.1c0 .5-.4 1-1 1-.5 0-1-.5-1-1 0-.6.5-1 1-1 .6 0 1 .4 1 1m48 0c0 .5-.4 1-1 1-.5 0-1-.5-1-1 0-.6.5-1 1-1 .6 0 1 .4 1 1m48 0c0 .5-.4 1-1 1-.5 0-1-.5-1-1 0-.6.5-1 1-1 .6 0 1 .4 1 1m29.8 2.8c.2.7-.3 1.2-1.2 1.2s-1.6-.7-1.6-1.6c0-1.7 2.2-1.4 2.8.4m-106.5 2.7c.1.5-.6 1.1-1.5 1.3-1.1.2-1.8-.3-1.8-1.3 0-1.7 3-1.8 3.3 0m-6.3 3c0 1.3 2.1 1.5 13 1.5 9.9 0 13 .3 13 1.3 0 1.8-27.8 1.8-28.5-.1-.2-.6-1.6-1.2-3-1.2-2.8 0-3.4-1.6-.7-2.3 3.7-1 6.2-.7 6.2.8m-8 3.5c1.1 1.1 2 3.1 2 4.5 0 2.3-.4 2.5-4.5 2.5s-4.5-.2-4.5-2.5 2.6-6.2 4.3-6.4c.4-.1 1.6.8 2.7 1.9m171.8-.8c-.2.8 1 1.4 3 1.6 3 .3 3.2.6 3.2 4.3v3.9h-9v-8h-5c-2.7 0-5 .4-5 1 0 .5-.4 1-1 1-.5 0-1-1.1-1-2.5 0-2.4.2-2.5 7.5-2.5 5.5 0 7.4.3 7.3 1.2M207 195.5c0 .8-.4 1.5-1 1.5-.5 0-1-.7-1-1.5s.5-1.5 1-1.5c.6 0 1 .7 1 1.5m14.5 11.5c.8 0 1.5.5 1.5 1.1s-.8.9-1.7.7c-1.5-.3-1.8-1.5-1.9-7.3l-.1-7 .4 6.2c.3 4.7.8 6.3 1.8 6.3m-39.5-8.7q0 1.35-3 .9c-1.6-.2-3-.8-3-1.3s1.4-.9 3-.9c1.8 0 3 .5 3 1.3m28 1.8c0 1.7-.4 2.8-1 2.4-.5-.3-1-1.7-1-3.1 0-1.3.5-2.4 1-2.4.6 0 1 1.4 1 3.1m97-2.1c0 .5-2.5 1-5.5 1s-5.5-.5-5.5-1c0-.6 2.5-1 5.5-1s5.5.4 5.5 1m-55 2.4c0 1.3-.7 2.7-1.6 3-.8.3-1.2 1-.9 1.6.3.5-.3 1-1.4 1-1.7 0-2.1-.6-2.1-3 0-2.3.4-3 2-3 1.1 0 2-.5 2-1 0-.6.5-1 1-1 .6 0 1 1.1 1 2.4m-12 1c0 .8-.7 1.6-1.5 2-1 .4-1.5-.1-1.5-1.4 0-1.1.7-2 1.5-2s1.5.6 1.5 1.4m-45 1.6c0 .6-2.7 1-6 1s-6-.4-6-1 2.7-1 6-1 6 .4 6 1m19 1.5c0 .8-.7 1.5-1.5 1.5s-1.5-.7-1.5-1.5.7-1.5 1.5-1.5 1.5.7 1.5 1.5m29 1.4c0 2.6.4 3 3.3 3.3 2.7.2 3.3.8 3.5 3 .3 2.3-.1 2.8-1.7 2.8-1.4 0-2.1.6-2.1 1.9 0 1.2.7 1.8 1.8 1.7 1.5-.1 1.7.8 1.7 6.8 0 4.7-.4 7.1-1.2 7.3-1 .4-1.3-1.4-1.4-6.4-.1-3.7-.4-5.6-.6-4.1-.2 1.6-1.1 2.8-1.9 2.8-1.1 0-1.4-1.7-1.4-8 0-6.4-.3-8-1.5-8q-1.5 0-1.5-3t1.5-3c1 0 1.5 1 1.5 2.9m80 .7c0 2.1-.4 3.3-1 2.9-.5-.3-1 .1-1 1 0 1.1-.8 1.5-3 1.3-2.8-.2-3-.5-3-4.5V203h4c3.9 0 4 .1 4 3.6m-147 1.8c0 2.4-1.6 3.6-5.1 3.6-1.4 0-1.9-.7-1.9-3 0-2.8.3-3 3.5-3 3 0 3.5.3 3.5 2.4m57 5.6c0 .5-.4 1-1 1-.5 0-1-.5-1-1 0-.6.5-1 1-1 .6 0 1 .4 1 1m3.6 2.1c1 1.7-1.3 3.6-2.7 2.2-1.2-1.2-.4-3.3 1.1-3.3.5 0 1.2.5 1.6 1.1M240 243c0 21.6-.2 25-1.5 25s-1.5-3.4-1.5-25 .2-25 1.5-25 1.5 3.4 1.5 25m15.1-8.9c-.4 17.8.5 31.2 2 30.3.6-.3.8-1.9.5-3.5-.2-1.6 0-2.9.5-2.9s.9 1.6.9 3.5c0 2.4.5 3.5 1.5 3.5.8 0 1.5.7 1.5 1.5s.7 1.5 1.5 1.5 1.5.7 1.5 1.5-.7 1.5-1.5 1.5-1.5.7-1.5 1.5c0 2.7-1.8 1.6-2.5-1.5-.5-2.5-1.1-3-3.6-3H253v-25c0-19.3.3-25 1.3-25 .9 0 1.1 3.7.8 16.1M245 247c0 13.3-.4 21-1 21s-1 2.7-1 6-.4 6-1 6c-.5 0-1 .7-1 1.5s.5 1.5 1 1.5c.6 0 1 1.3 1 3q0 3-1.5 3c-1.1 0-1.5 1.2-1.5 4.5s-.4 4.5-1.5 4.5c-.8 0-1.5.7-1.5 1.5s-.7 1.5-1.5 1.5c-1.2 0-1.5 1.4-1.5 6.2 0 7.7-.8 10.8-2.6 10.8-.8 0-1.4.7-1.4 1.5 0 1-1.1 1.5-3.5 1.5-2.2 0-3.4.4-3.2 1.2.1.6-.6 1.4-1.5 1.6-1.1.2-1.8-.2-1.8-1.2 0-.9-.7-1.6-1.5-1.6s-1.5.7-1.5 1.5-.7 1.5-1.5 1.5-1.5.7-1.5 1.5c0 1.1-1.2 1.5-4.5 1.5s-4.5-.4-4.5-1.5 1.2-1.5 4.5-1.5 4.5-.4 4.5-1.5c0-.8.7-1.5 1.5-1.5s1.5-.7 1.5-1.5c0-1.1 1.2-1.5 5-1.5 4.8 0 4.9-.1 5.6-3.5.3-2 1.2-3.5 2-3.5 1.1 0 1.4-1.6 1.4-6.5 0-5.1.3-6.5 1.5-6.5q1.5 0 1.5-3t1.5-3 1.5-3 1.5-3c.8 0 1.5-.7 1.5-1.5 0-1-1.1-1.5-3.5-1.5s-3.5.5-3.5 1.5c0 .8-.7 1.5-1.5 1.5s-1.5.7-1.5 1.5-.7 1.5-1.5 1.5-1.5.7-1.5 1.5q0 1.5-3 1.5t-3 1.5c0 .8.7 1.5 1.5 1.5s1.5.6 1.5 1.2c0 1.6-2 4.7-2 3.3 0-.6-.5-.2-1.1.7-.5 1-1.7 1.8-2.4 1.8-.8 0-1.5.7-1.5 1.5s-.7 1.5-1.5 1.5c-1 0-1.5 1.1-1.5 3.5 0 1.9-.4 3.5-1 3.5-.5 0-1.9.9-3 2s-2 2.4-2 3c0 .5-.7 1-1.5 1s-1.5.7-1.5 1.5q0 1.5-3 1.5t-3 1.5c0 1-1.1 1.5-3.5 1.5-2.9 0-3.5.4-3.5 2.1 0 1.2-.5 1.9-1.2 1.7-1.3-.5-4 2.4-5.1 5.4-.3 1-1.3 1.8-2.2 1.8-.8 0-1.4.6-1.2 1.2.3 1.7-2.5 1.7-3.1 0-.2-.7.5-1.6 1.7-1.9 1.5-.4 2.1-1.3 2.1-3.4 0-1.9.5-2.9 1.5-2.9.8 0 1.5-.9 1.5-2 0-1.6.7-2 3-2q3 0 3-1.5c0-1 1-1.5 2.9-1.5 1.6 0 3.1-.6 3.4-1.4s1.8-1.6 3.4-1.8c2.2-.2 2.9-.9 3.1-3.1.2-1.5.9-2.7 1.8-2.7s1.4-1.1 1.4-3q0-3 1.5-3c1.1 0 1.5-1.1 1.5-4s.4-4 1.5-4c.8 0 1.5-.7 1.5-1.5 0-2 1.9-1.9 4.2.2 1.7 1.5 1.8 1.5 1.8 0 0-1-.7-1.7-1.5-1.7s-1.5-.5-1.5-1c0-.6.7-1.3 1.5-1.6.8-.4 1.5-1.2 1.5-2 0-.9 1.2-1.4 3.5-1.4 3.2 0 3.5-.2 3.5-3q0-3 1.5-3c.8 0 1.5-.7 1.5-1.5 0-1.1 1.2-1.5 5-1.5h5v-6c0-4.5.4-6.2 1.5-6.6 1.3-.5 1.4-2.4.9-12.3-.7-12.7.2-29.1 1.7-29.1.5 0 .9 9 .9 21m5-5.5c0 5.1-.3 6.5-1.5 6.5s-1.5-1.4-1.5-6.5.3-6.5 1.5-6.5 1.5 1.4 1.5 6.5m1 16.5c0 6.4-.2 7-2.1 7s-2.1-.5-1.8-6.3c.3-7.2.5-7.7 2.5-7.7 1.1 0 1.4 1.6 1.4 7m-18 14.5c0 .8-.4 1.5-1 1.5-.5 0-1-.7-1-1.5s.5-1.5 1-1.5c.6 0 1 .7 1 1.5m36 0c0 .8.6 1.5 1.4 1.5s1.6.7 2 1.5c.3.8 1.2 1.5 2.1 1.5.8 0 1.5.7 1.5 1.5q0 1.5 3 1.5t3 1.5c0 1.1 1.2 1.5 4.5 1.5s4.5.4 4.5 1.5c0 1 1.1 1.5 3.5 1.5s3.5.5 3.5 1.5c0 1.2 1.4 1.5 6.5 1.5s6.5.3 6.5 1.5q0 1.5 3 1.5t3 1.5-3 1.5-3-1.5c0-1.2-1.6-1.5-8-1.5s-8-.3-8-1.5c0-.8-.9-1.5-2-1.5s-2-.7-2-1.5c0-1.1-1.1-1.5-4-1.5-2.7 0-4.3-.5-4.6-1.5-.4-.9-1.9-1.5-3.5-1.5-1.9 0-2.9-.5-2.9-1.5 0-.9-.9-1.5-2.3-1.5-1.5 0-2.6-.9-3.5-3-.8-1.7-2-3-2.8-3-.9 0-1.4 1.1-1.4 3q0 3-1.5 3t-1.5-3 1.5-3c.8 0 1.5-.7 1.5-1.5s.7-1.5 1.5-1.5 1.5.7 1.5 1.5m2.1 9.8c1.5.4 1.9 1.4 1.9 5.1 0 4.4.1 4.6 3 4.6 2.7 0 3 .3 3 3q0 3 1.5 3c.8 0 1.5.7 1.5 1.5s.7 1.5 1.6 1.5 2.7 1.1 4 2.5c1.7 1.9 3.3 2.5 6.4 2.5 2.9 0 4 .4 4 1.5q0 1.5 3 1.5t3 1.5-3 1.5-3 1.5 3 1.5 3 1.5-3 1.5-3-1.5c0-.8-.7-1.5-1.5-1.5s-1.5.7-1.5 1.5c0 1.2-1.3 1.5-6 1.5s-6-.3-6-1.5 1.3-1.5 6-1.5 6-.3 6-1.5c0-.8.7-1.5 1.5-1.5s1.5-.7 1.5-1.5c0-1.2-1.3-1.5-5.9-1.5-5.4 0-6-.2-6.3-2.3-.2-1.2-.9-2.1-1.7-1.9-.7.1-1.5-.7-1.8-1.8-.4-1.4-1.4-2-3.4-2-2.5 0-2.9-.4-2.9-2.9 0-2.6-.4-3-3.2-3.3-3.1-.3-3.3-.6-3.6-4.6q-.3-4.2-1.8-4.2c-1.8 0-1.9-5.6-.1-6.3.6-.2 1.3.2 1.5.9.2.6 1.2 1.4 2.3 1.7m-180.5 3.4c-1.1 1.1-1.9-.6-1.1-2.4.8-1.7.8-1.7 1.2 0 .3 1 .2 2.1-.1 2.4m8.1-2.2c.8 2.2.1 2.6-3.5 1.9-5-1-4.2-2.2 2.1-3.3.4 0 1 .6 1.4 1.4m7.8.6c0 .7-.8 1.5-1.7 1.7-1.8.3-2.5-1.8-1.1-3.2 1-1 2.8-.1 2.8 1.5m29.5.5c0 .8-.7 1.4-1.5 1.4-1.5 0-2.1-2.1-.9-3.3 1-.9 2.4.2 2.4 1.9m6.8-.8c.5 1.7-2.7 2.7-4.1 1.3-.9-.9-.8-1.4.3-2.1 1.8-1.1 3.2-.8 3.8.8m7 .5c.2 1-.3 1.7-1.2 1.7-1 0-1.6-.9-1.6-2.1 0-2.4 2.3-2.1 2.8.4m8.6-1.5c.2.4.1 1.4-.4 2.2-.7 1.1-1.2 1.2-2.1.3-.6-.6-.8-1.6-.5-2.2.8-1.3 2.3-1.4 3-.3m7.6 1.2c0 1.1-.4 2-1 2-.5 0-1-.9-1-2s.5-2 1-2c.6 0 1 .9 1 2m23 0c0 1.1-.7 2-1.5 2-1.5 0-2.1-2.1-.8-3.3 1.2-1.3 2.3-.7 2.3 1.3m128.6-.9c1 1.7-1.3 3.6-2.7 2.2-1.2-1.2-.4-3.3 1.1-3.3.5 0 1.2.5 1.6 1.1m13.4.9c0 1.1-.4 2-1 2-.5 0-1-.9-1-2s.5-2 1-2c.6 0 1 .9 1 2m7.5.1c0 .7-.8 1.5-1.7 1.7-1.8.3-2.5-1.8-1.1-3.2 1-1 2.8-.1 2.8 1.5m7.5.5c0 .8-.7 1.4-1.5 1.4-1.5 0-2.1-2.1-.9-3.3 1-.9 2.4.2 2.4 1.9m10.1-1.6c1 0 1.9.6 1.9 1.4 0 .9-1.2 1.4-3.5 1.4-2.8 0-3.5-.4-3.5-2 0-1.4.5-1.8 1.6-1.4.9.3 2.4.6 3.5.6m13.5.1c.8 1.4-1.1 3.3-2.5 2.5-1.1-.7-.4-3.6.9-3.6.5 0 1.2.5 1.6 1.1m7.4 1.5c0 .8-.7 1.4-1.5 1.4-1.5 0-2.1-2.1-.9-3.3 1-.9 2.4.2 2.4 1.9m8 0c0 .8-.7 1.4-1.5 1.4-1.5 0-2.1-2.1-.9-3.3 1-.9 2.4.2 2.4 1.9m11-.6c0 2.3-1 2.6-2.8.8-.9-.9-1.2-.9-1.2 0 0 .7-.4 1.2-1 1.2-.5 0-1-.6-1-1.4 0-1.3.9-1.7 5.3-2.5.4 0 .7.8.7 1.9m8 .6c0 1.1-.9 1.4-3.2 1.1-4-.4-4.8-2.4-1.1-2.9 3.5-.5 4.3-.1 4.3 1.8m6.8-.3c.2 1-.3 1.7-1.2 1.7-1.8 0-2.9-1.6-2.1-3.1.9-1.4 2.9-.6 3.3 1.4m8 0c.2 1-.3 1.7-1.2 1.7-1 0-1.6-.9-1.6-2.1 0-2.4 2.3-2.1 2.8.4m-330.8.3c0 1.7-2.2 1.4-2.8-.4-.2-.7.3-1.2 1.2-1.2s1.6.7 1.6 1.6m14-.6c0 .5-.4 1-1 1-.5 0-1-.5-1-1 0-.6.5-1 1-1 .6 0 1 .4 1 1m9 .5c0 .8-.4 1.5-1 1.5-.5 0-1-.7-1-1.5s.5-1.5 1-1.5c.6 0 1 .7 1 1.5m4-.5c0 .5-.4 1-1 1-.5 0-1-.5-1-1 0-.6.5-1 1-1 .6 0 1 .4 1 1m4 .5c0 .8-.4 1.5-1 1.5-.5 0-1-.7-1-1.5s.5-1.5 1-1.5c.6 0 1 .7 1 1.5m7.8-.3c-.7 1.9-6.8 2.1-6.8.3 0-1.1 1.1-1.5 3.6-1.5 2.4 0 3.4.4 3.2 1.2m4.2-.2c0 .5-.4 1-1 1-.5 0-1-.5-1-1 0-.6.5-1 1-1 .6 0 1 .4 1 1m31 0c0 .5-.4 1-1 1-.5 0-1-.5-1-1 0-.6.5-1 1-1 .6 0 1 .4 1 1m21.5 0c.3.5.1 1-.4 1-.6 0-1.1-.5-1.1-1 0-.6.2-1 .4-1 .3 0 .8.4 1.1 1m129.5.5c0 .8-.2 1.5-.4 1.5s-.6-.7-1-1.5c-.3-.8-.1-1.5.4-1.5.6 0 1 .7 1 1.5m8-.6c0 .6-.4 1.3-1 1.6-.5.3-1-.1-1-.9 0-.9.5-1.6 1-1.6.6 0 1 .4 1 .9m21 .1c0 .5-.4 1-1 1-.5 0-1-.5-1-1 0-.6.5-1 1-1 .6 0 1 .4 1 1m5.7 1.2c-.3.8-.6.5-.6-.6-.1-1.1.2-1.7.5-1.3.3.3.4 1.2.1 1.9m13.3-.7c0 .8-.4 1.5-1 1.5-.5 0-1-.7-1-1.5s.5-1.5 1-1.5c.6 0 1 .7 1 1.5m3 .1c0 .8-.4 1.2-1 .9-.5-.3-1-1-1-1.6 0-.5.5-.9 1-.9.6 0 1 .7 1 1.6m9-.7c0 .6-.4 1.3-1 1.6-.5.3-1-.1-1-.9 0-.9.5-1.6 1-1.6.6 0 1 .4 1 .9m7.8.3c-.6 1.8-2.8 2.1-2.8.4 0-.9.7-1.6 1.6-1.6s1.4.5 1.2 1.2m7.2-.3c0 .6-.4 1.3-1 1.6-.5.3-1-.1-1-.9 0-.9.5-1.6 1-1.6.6 0 1 .4 1 .9m26 .6c0 .8-.4 1.5-1 1.5-.5 0-1-.7-1-1.5s.5-1.5 1-1.5c.6 0 1 .7 1 1.5m-235.3 4.2c-.3.3-1.1.2-1.7-.2-.8-.5-.7-1.1.2-2.2 1.2-1.5 1.3-1.4 1.6.1.2 1 .1 2-.1 2.3M95 293c0 .5-1.6 1-3.5 1s-3.5-.5-3.5-1c0-.6 1.6-1 3.5-1s3.5.4 3.5 1m7 0c0 .5-1.3 1-3 1-1.6 0-3-.5-3-1 0-.6 1.4-1 3-1 1.7 0 3 .4 3 1m13 0c0 .5-1.3 1-3 1-1.6 0-3-.5-3-1 0-.6 1.4-1 3-1 1.7 0 3 .4 3 1m6.8.1c-.2.6-.7 1-1.1 1-.4-.1-1.6-.1-2.7-.1s-2-.5-2-1c0-.6 1.4-1 3.1-1s2.9.5 2.7 1.1m8.2-.1c0 .5-1.3 1-3 1-1.6 0-3-.5-3-1 0-.6 1.4-1 3-1 1.7 0 3 .4 3 1m6 0c0 .5-.9 1-2 1s-2-.5-2-1c0-.6.9-1 2-1s2 .4 2 1m9 0c0 .5-1.3 1-3 1-1.6 0-3-.5-3-1 0-.6 1.4-1 3-1 1.7 0 3 .4 3 1m11 .5c0 .8-.7 1.5-1.5 1.5s-1.5-.7-1.5-1.5.7-1.5 1.5-1.5 1.5.7 1.5 1.5m8 0c0 .9-.9 1.5-2.5 1.5s-2.5-.6-2.5-1.5.9-1.5 2.5-1.5 2.5.6 2.5 1.5m161 0q0 1.5-3 1.5t-3-1.5 3-1.5 3 1.5m10 .1c0 1.1-.8 1.4-3.2 1.2-4.6-.4-4.9-2.8-.4-2.8 2.6 0 3.6.4 3.6 1.6m7.5-.6c.3.5-.3 1-1.4 1-1.2 0-2.1-.5-2.1-1 0-.6.6-1 1.4-1s1.8.4 2.1 1m10.5 0c0 .5-1.6 1-3.5 1s-3.5-.5-3.5-1c0-.6 1.6-1 3.5-1s3.5.4 3.5 1m3.5 0c.3.5.1 1-.4 1-.6 0-1.1-.5-1.1-1 0-.6.2-1 .4-1 .3 0 .8.4 1.1 1m7.5 0c0 .5-1.3 1-3 1-1.6 0-3-.5-3-1 0-.6 1.4-1 3-1 1.7 0 3 .4 3 1m9 .6c0 1.7-2.2 1.4-2.8-.4-.2-.7.3-1.2 1.2-1.2s1.6.7 1.6 1.6m7-.7c0 1.5-1.5 2.1-3.8 1.4-3.2-.8-2.7-2.3.8-2.3 1.7 0 3 .4 3 .9m8 .1c0 .5-1.3 1-3 1-1.6 0-3-.5-3-1 0-.6 1.4-1 3-1 1.7 0 3 .4 3 1m8 0c0 .5-1.3 1-3 1-1.6 0-3-.5-3-1 0-.6 1.4-1 3-1 1.7 0 3 .4 3 1m8 0c0 .5-1.6 1-3.5 1s-3.5-.5-3.5-1c0-.6 1.6-1 3.5-1s3.5.4 3.5 1m10 0c0 .5-1.3 1-3 1-1.6 0-3-.5-3-1 0-.6 1.4-1 3-1 1.7 0 3 .4 3 1m-316 3.7c0 .8-1.2 1.3-3.1 1.3-2.2 0-3.2.5-3.6 2-.3 1.1-1.1 2-1.7 2-1.2 0-2-4.6-1-6.1.9-1.5 9.4-.8 9.4.8m3.2-.2c0 .5-.5 1.1-1.1 1.3s-1.1-.4-1.1-1.3.5-1.5 1.1-1.3 1.1.8 1.1 1.3m4.8 0c0 .8-.7 1.5-1.5 1.5-1.6 0-2-1.2-.8-2.3 1.1-1.2 2.3-.8 2.3.8m9 0q0 1.5-3 1.5c-2.9 0-3.8-.9-2.3-2.3 1.3-1.3 5.3-.7 5.3.8m4 0c0 .8-.7 1.5-1.5 1.5s-1.5-.7-1.5-1.5.7-1.5 1.5-1.5 1.5.7 1.5 1.5m6.7.7c-.3.8-.6.5-.6-.6-.1-1.1.2-1.7.5-1.3.3.3.4 1.2.1 1.9m4.3-.7c0 .8-.7 1.5-1.5 1.5s-1.5-.7-1.5-1.5.7-1.5 1.5-1.5 1.5.7 1.5 1.5m4 0c0 .8-.7 1.5-1.5 1.5s-1.5-.7-1.5-1.5.7-1.5 1.5-1.5 1.5.7 1.5 1.5m11 0q0 1.5-3 1.5t-3-1.5 3-1.5 3 1.5m7 0q0 1.5-3 1.5t-3-1.5 3-1.5 3 1.5m43 0c0 .8-.7 1.5-1.5 1.5-1.6 0-2-1.2-.8-2.3 1.1-1.2 2.3-.8 2.3.8m94 0c0 .8-.7 1.5-1.5 1.5s-1.5-.7-1.5-1.5.7-1.5 1.5-1.5 1.5.7 1.5 1.5m56 0c0 1.1-1.1 1.5-4 1.5s-4-.4-4-1.5 1.1-1.5 4-1.5 4 .4 4 1.5m8 0c0 .8-.7 1.5-1.5 1.5s-1.5-.7-1.5-1.5.7-1.5 1.5-1.5 1.5.7 1.5 1.5m11 0c0 1-1.1 1.5-3.5 1.5s-3.5-.5-3.5-1.5 1.1-1.5 3.5-1.5 3.5.5 3.5 1.5m7 0c0 .8-.9 1.5-2 1.5s-2-.7-2-1.5.9-1.5 2-1.5 2 .7 2 1.5m6.4-.9c2.5.9 1.9 2.4-.9 2.4-1.6 0-2.5-.6-2.5-1.5 0-1.6.9-1.9 3.4-.9m10.6.9c0 .9-.9 1.5-2.5 1.5-2.9 0-3.4-1.6-.7-2.3 3-.8 3.2-.7 3.2.8m8 0q0 1.5-3 1.5t-3-1.5 3-1.5 3 1.5m7.8 2.2c.3 2.8 0 3.3-1.7 3.3-1.4 0-2.1-.6-2.1-2 0-1.1-.7-2-1.5-2s-1.5-.4-1.5-.8c0-1.6 1.4-2.3 4-2 2 .2 2.6.9 2.8 3.5m10.2-2.1c0 .8-1 1.4-2.5 1.4s-2.5-.6-2.5-1.4 1-1.4 2.5-1.4 2.5.6 2.5 1.4m-65 .4c0 .5-.4 1-1 1-.5 0-1-.5-1-1 0-.6.5-1 1-1 .6 0 1 .4 1 1m-41 2.5c0 .8.7 1.5 1.5 1.5 1 0 1.5 1.1 1.5 3.5s-.5 3.5-1.5 3.5c-.9 0-1.5-.9-1.5-2.5 0-1.5-.6-2.5-1.4-2.5s-1.6-.7-2-1.5c-.3-.8-1.1-1.4-1.7-1.3-.6.2-1.4-.3-1.6-1-.3-.8.7-1.2 3.1-1.2 2.5 0 3.6.4 3.6 1.5m27-.1c0 1.9-2.3 3.3-2.8 1.8-.2-.8-3-1.2-7.8-1.2-4.3 0-7.4-.4-7.4-1s3.7-1 9-1c7.2 0 9 .3 9 1.4m-196 1.1c0 .8-.7 1.5-1.5 1.5s-1.5-.7-1.5-1.5.7-1.5 1.5-1.5 1.5.7 1.5 1.5m258 0c0 .8-.7 1.5-1.5 1.5s-1.5-.7-1.5-1.5.7-1.5 1.5-1.5 1.5.7 1.5 1.5M85 301c0 .5-.7 1-1.5 1s-1.5-.5-1.5-1c0-.6.7-1 1.5-1s1.5.4 1.5 1m333 0c0 .5-1.6 1-3.5 1.1s-4.5.2-5.7.2c-1.2.1-2.3-.4-2.6-1.1-.3-.9 1.4-1.2 5.7-1.2 3.4 0 6.1.4 6.1 1m-226 1.5c0 .8-.7 1.5-1.5 1.5s-1.5-.7-1.5-1.5.7-1.5 1.5-1.5 1.5.7 1.5 1.5m106 .1c0 1.7-2.2 1.4-2.8-.4-.2-.7.3-1.2 1.2-1.2s1.6.7 1.6 1.6m-45 1.4c0 1.1.8 2.4 1.8 2.7.9.4 2.6 1.7 3.7 3 1.2 1.3 3.2 2.3 4.8 2.3 3.4 0 3.5 1.6.2 2.4s-7.5-.3-7.5-2c0-.9-1.1-1.4-3-1.4-2.9 0-3-.2-3-4.5 0-3.3.4-4.5 1.5-4.5.8 0 1.5.9 1.5 2m51 .5c0 .8-.7 1.5-1.5 1.5-1.6 0-2-1.2-.8-2.3 1.1-1.2 2.3-.8 2.3.8m110 0c0 .8-.4 1.5-1 1.5-.5 0-1-.7-1-1.5s.5-1.5 1-1.5c.6 0 1 .7 1 1.5m-329 1c0 .8-.7 1.5-1.5 1.5s-1.5-.7-1.5-1.5.7-1.5 1.5-1.5 1.5.7 1.5 1.5m142 0c0 .8-.7 1.5-1.5 1.5s-1.5-.7-1.5-1.5.7-1.5 1.5-1.5 1.5.7 1.5 1.5m183-.5c0 .5-.2 1-.4 1-.3 0-.8-.5-1.1-1-.3-.6-.1-1 .4-1 .6 0 1.1.4 1.1 1m-53 7.1c0 2.8-.4 3.9-1.5 3.9-.8 0-1.5-.5-1.5-1 0-.6-.7-1-1.5-1-1 0-1.5-1-1.5-3.1 0-1.6.4-2.8.8-2.5.4.2 1.4.1 2.2-.4 2.2-1.3 3-.2 3 4.1m-201-2.6c0 .8-.7 1.5-1.5 1.5s-1.5.7-1.5 1.5-.7 1.5-1.5 1.5-1.5-.7-1.5-1.5.7-1.5 1.5-1.5 1.5-.7 1.5-1.5.7-1.5 1.5-1.5 1.5.7 1.5 1.5m68 0c0 .8-.7 1.5-1.5 1.5s-1.5-.7-1.5-1.5.7-1.5 1.5-1.5 1.5.7 1.5 1.5m-75 4.5c0 1.6-.5 3-1.1 3s-.9-.7-.5-1.5c.3-.8.1-1.5-.4-1.5-.6 0-1-.7-1-1.5s.7-1.5 1.5-1.5q1.5 0 1.5 3m239-1.5c0 .8-.4 1.5-1 1.5-.5 0-1-.7-1-1.5s.5-1.5 1-1.5c.6 0 1 .7 1 1.5m27 0c0 .8-.7 1.5-1.5 1.5s-1.5-.7-1.5-1.5.7-1.5 1.5-1.5 1.5.7 1.5 1.5m-100.2.7c-.7 2-6.8 2.3-6.8.4 0-1.2 1-1.6 3.6-1.6 2.4 0 3.4.4 3.2 1.2M129 315.5c0 .8-.7 1.5-1.5 1.5s-1.5-.7-1.5-1.5.7-1.5 1.5-1.5 1.5.7 1.5 1.5m16 0c0 .8-.7 1.5-1.5 1.5s-1.5-.7-1.5-1.5.7-1.5 1.5-1.5 1.5.7 1.5 1.5m202 2c0 2.4-.5 3.5-1.5 3.5s-1.5-1.1-1.5-3.5.5-3.5 1.5-3.5 1.5 1.1 1.5 3.5m-78 2c0 .8.7 1.5 1.5 1.5s1.5.7 1.5 1.5-.7 1.5-1.5 1.5-1.5-.7-1.5-1.5-.7-1.5-1.5-1.5-1.5-.7-1.5-1.5.7-1.5 1.5-1.5 1.5.7 1.5 1.5m29 5c0 2.7.4 3.5 1.8 3.5s1.7.9 1.7 5.7c0 4.7-.3 5.8-1.7 6.1s-1.8-.3-1.8-2.7c0-2.1-.5-3.1-1.5-3.1-1.2 0-1.5-1.4-1.5-6.5s.3-6.5 1.5-6.5c1 0 1.5 1.1 1.5 3.5m-6 0c0 .8-.7 1.5-1.5 1.5s-1.5-.7-1.5-1.5.7-1.5 1.5-1.5 1.5.7 1.5 1.5m-116 1c0 .8-.7 1.5-1.5 1.5s-1.5-.7-1.5-1.5.7-1.5 1.5-1.5 1.5.7 1.5 1.5m50-.1c0 .8-.7 1.6-1.5 2-1.2.4-1.5 2.2-1.3 8.8.1 5.5-.2 8.3-1 8.6-.7.2-1.2 1-1.2 1.7s-.9 1.5-2 1.8c-1.5.4-2 0-2-1.4 0-1 .7-1.9 1.5-1.9 1.7 0 1.9-1 1.5-10.3-.2-5.4.1-6.7 1.3-6.7.8 0 1.7-.9 2-2 .6-2.3 2.7-2.7 2.7-.6m-47 5.6c0 2.9-.1 3-5 3-3.8 0-5-.4-5-1.5 0-1 1.1-1.5 3.5-1.5s3.5-.5 3.5-1.5c0-.8.7-1.5 1.5-1.5q1.5 0 1.5 3m100-.1c0 3.6-1.9 5.1-2.7 2.2-.3-1.2-1.3-2.1-2.4-2.1s-1.9-.7-1.9-1.5c0-1 1.1-1.5 3.5-1.5 3.2 0 3.5.2 3.5 2.9m-113 1.6c0 .8-.7 1.5-1.5 1.5s-1.5-.7-1.5-1.5.7-1.5 1.5-1.5 1.5.7 1.5 1.5m29 3c0 .8-.7 1.5-1.5 1.5s-1.5-.7-1.5-1.5.7-1.5 1.5-1.5 1.5.7 1.5 1.5m68 2.5c0 3.3-.3 4-2 4-1.6 0-2-.7-2-3.3 0-3.6.6-4.7 2.7-4.7.9 0 1.3 1.3 1.3 4m42.7 4.2c-.2 1.3-.4.5-.4-1.7-.1-2.2.1-3.2.4-2.3.2 1 .2 2.8 0 4m-129.9-3c-.3.7-1.1 1.3-1.8 1.3s-1.5-.6-1.7-1.3c-.3-.7.4-1.2 1.7-1.2s2 .5 1.8 1.2m16.2.3c0 .8-.7 1.5-1.5 1.5s-1.5-.7-1.5-1.5.7-1.5 1.5-1.5 1.5.7 1.5 1.5m25 .5c0 1.1-.7 2-1.5 2s-1.5-.9-1.5-2 .7-2 1.5-2 1.5.9 1.5 2m85 5c0 2.3-.4 3-2 3-1.1 0-2-.7-2-1.5s-.7-1.5-1.5-1.5-1.5-.7-1.5-1.5c0-1 1.1-1.5 3.5-1.5 3.2 0 3.5.2 3.5 3m-7 4c0 .5 1.4 1 3 1q3 0 3 1.5c0 1.1-1.2 1.5-4.5 1.5-4.1 0-4.5-.2-4.5-2.5 0-1.6.6-2.5 1.5-2.5.8 0 1.5.4 1.5 1m13 .4c0 1.7-2.7 2.9-3.5 1.6-.4-.6-.3-1.5 0-2 .9-1.5 3.5-1.2 3.5.4M243 360c0 1.1-.7 2-1.5 2s-1.5-.9-1.5-2 .7-2 1.5-2 1.5.9 1.5 2m-114 7v4h-4c-2.9 0-4-.4-4-1.5 0-.8.5-1.5 1-1.5.6 0 1-1.1 1-2.5 0-2.1.5-2.5 3-2.5 2.8 0 3 .2 3 4m46 10.5c0 7.7-.4 12.5-1 12.5s-1-4.8-1-12.5.4-12.5 1-12.5 1 4.8 1 12.5m42.7.1c-.3.3-1.2.4-1.9.1-.8-.3-.5-.6.6-.6 1.1-.1 1.7.2 1.3.5M282 382c0 1.1-.7 2-1.5 2s-1.5-.9-1.5-2 .7-2 1.5-2 1.5.9 1.5 2m-87 24c0 1.1-.7 2-1.5 2-1.5 0-2.1-2.1-.8-3.3 1.2-1.3 2.3-.7 2.3 1.3"/><path d="M258 110.5c0 .8.9 1.5 2 1.5s2-.7 2-1.5-.9-1.5-2-1.5-2 .7-2 1.5m25 20.5c0 .5.5 1 1 1 .6 0 1-.5 1-1 0-.6-.4-1-1-1-.5 0-1 .4-1 1m-100 8q0 3 1.5 3t1.5-3-1.5-3-1.5 3m100 2c0 .5.5 1 1 1 .6 0 1-.5 1-1 0-.6-.4-1-1-1-.5 0-1 .4-1 1m5 0c0 .5 2.3 1 5 1 2.8 0 5-.5 5-1 0-.6-2.2-1-5-1-2.7 0-5 .4-5 1m-115 4.5c0 .8.7 1.5 1.5 1.5s1.5-.7 1.5-1.5-.7-1.5-1.5-1.5-1.5.7-1.5 1.5m85-1.5c0 1.7.7 2 4.5 2s4.5-.3 4.5-2-.7-2-4.5-2-4.5.3-4.5 2m-41 15.5c0 2.4.5 3.5 1.5 3.5s1.5-1.1 1.5-3.5-.5-3.5-1.5-3.5-1.5 1.1-1.5 3.5m37 1.6c0 2.4 2.3 2.1 2.8-.4.2-1-.3-1.7-1.2-1.7-1 0-1.6.9-1.6 2.1m-91 7.4c0 .8.7 1.5 1.5 1.5s1.5-.7 1.5-1.5-.7-1.5-1.5-1.5-1.5.7-1.5 1.5m-12 3c0 .8.5 1.5 1 1.5.6 0 1-.7 1-1.5s-.4-1.5-1-1.5c-.5 0-1 .7-1 1.5m179 0c0 .8.7 1.5 1.5 1.5s1.5-.7 1.5-1.5-.7-1.5-1.5-1.5-1.5.7-1.5 1.5m-176 24c0 .8.7 1.5 1.5 1.5s1.5-.7 1.5-1.5-.7-1.5-1.5-1.5-1.5.7-1.5 1.5m176 2c0 2 .4 2.6 1.8 2.3.9-.2 1.7-1.2 1.7-2.3s-.8-2.1-1.7-2.3c-1.4-.3-1.8.3-1.8 2.3m-12 10.1c0 .9.5 1.4 1.2 1.2 1.8-.6 2.1-2.8.4-2.8-.9 0-1.6.7-1.6 1.6m-104 91.9c0 .8.7 1.5 1.5 1.5s1.5-.7 1.5-1.5-.7-1.5-1.5-1.5-1.5.7-1.5 1.5M253 91c0 .5-.7 1-1.5 1s-1.5.7-1.5 1.5.7 1.5 1.5 1.5 1.5-.5 1.5-1c0-.6.7-1 1.5-1s1.5-.7 1.5-1.5-.7-1.5-1.5-1.5-1.5.4-1.5 1m6 2c0 .5-.6.7-1.3.5-1.1-.5-7.7 4.6-7.7 5.9 0 .3 5.2.6 11.5.6 7 0 11.5-.4 11.5-1s-1.6-1-3.5-1c-2.4 0-3.5-.5-3.5-1.5 0-.8-.7-1.5-1.5-1.5-.9 0-1.8.7-2.1 1.5-.4.8-1.7 1.5-3 1.5-1.5 0-2.4-.6-2.4-1.5 0-.8.7-1.5 1.5-1.5s1.5-.7 1.5-1.5-.2-1.5-.5-1.5-.5.4-.5 1m17 8.5c0 .8.7 1.5 1.5 1.5s1.5-.7 1.5-1.5-.7-1.5-1.5-1.5-1.5.7-1.5 1.5m-73.5 2.5c-.3.5-.1 1 .4 1 .6 0 1.1-.5 1.1-1 0-.6-.2-1-.4-1-.3 0-.8.4-1.1 1m96.2 9.7c-1.2 1.1-.7 3.3.7 3.3.8 0 1.7 1.1 2 2.4.4 1.7 1.5 2.6 3.7 3.1 1.7.4 3.3.4 3.6.1.4-.3.1-.6-.5-.6-.7 0-1.2-.7-1.2-1.6 0-1-.6-1.4-1.5-1-1 .4-1.5-.1-1.5-1.4 0-1.1-.7-2-1.5-2s-1.5-.7-1.5-1.5c0-1.6-1.2-2-2.3-.8m12.9 9.8c-.3.8-1.2 1.5-2.1 1.5-.8 0-1.5.7-1.5 1.5s.7 1.5 1.5 1.5 1.5-.7 1.5-1.5.7-1.5 1.5-1.5 1.5-.7 1.5-1.5-.4-1.5-.9-1.5-1.1.7-1.5 1.5M146 155c0 .5.9 1 2 1s2-.5 2-1c0-.6-.9-1-2-1s-2 .4-2 1m195 0c0 .5.7 1 1.5 1s1.5-.5 1.5-1c0-.6-.7-1-1.5-1s-1.5.4-1.5 1m7 18c0 .5 1.1 1 2.5 1s2.5-.5 2.5-1c0-.6-1.1-1-2.5-1s-2.5.4-2.5 1m-216 11c0 .5 1.6 1 3.5 1s3.5-.5 3.5-1c0-.6-1.6-1-3.5-1s-3.5.4-3.5 1m219 0c0 .5 1.3 1 2.9 1 1.7 0 3.3-.5 3.6-1 .4-.6-.8-1-2.9-1-2 0-3.6.4-3.6 1m-211 25.5c0 2 .5 2.5 2.5 2.5s2.5-.5 2.5-2.5c0-1.4-.4-2.5-.9-2.5s-.7 1-.5 2.2l.5 2.3-1-2.3c-1.4-3-3.1-2.8-3.1.3m46 14.5c0 .5.5 1 1 1 .6 0 1-.5 1-1 0-.6-.4-1-1-1-.5 0-1 .4-1 1m115.2 3.5c.2 2.9.7 4.5 1.5 4.5.9 0 1.3-1.5 1.3-4.5 0-3.3-.4-4.5-1.5-4.5s-1.4 1.1-1.3 4.5m6.8 0c0 .8.4 1.5.8 1.5.5 0 .9-.7.9-1.5s-.4-1.5-.9-1.5c-.4 0-.8.7-.8 1.5m20.5 1.6c.6 4.5 1.5 4.9 1.5.6 0-2.1-.4-3.7-.9-3.7s-.8 1.4-.6 3.1M208 244c0 1.6.5 3 1 3 .6 0 1-1.4 1-3 0-1.7-.4-3-1-3-.5 0-1 1.3-1 3M79 274c0 .5.5 1 1 1 .6 0 1-.5 1-1 0-.6-.4-1-1-1-.5 0-1 .4-1 1m14 0c0 .5.5 1 1 1 .6 0 1-.5 1-1 0-.6-.4-1-1-1-.5 0-1 .4-1 1m7 0c0 .5.5 1 1 1 .6 0 1-.5 1-1 0-.6-.4-1-1-1-.5 0-1 .4-1 1m7 0c0 .5.5 1 1 1 .6 0 1-.5 1-1 0-.6-.4-1-1-1-.5 0-1 .4-1 1m19 0c0 .5.5 1 1 1 .6 0 1-.5 1-1 0-.6-.4-1-1-1-.5 0-1 .4-1 1m14 0c0 .5.5 1 1 1 .6 0 1-.5 1-1 0-.6-.4-1-1-1-.5 0-1 .4-1 1m13 0c0 .5.5 1 1 1 .6 0 1-.5 1-1 0-.6-.4-1-1-1-.5 0-1 .4-1 1m17 0c0 .5.5 1 1 1 .6 0 1-.5 1-1 0-.6-.4-1-1-1-.5 0-1 .4-1 1m16 0c0 .5.5 1 1 1 .6 0 1-.5 1-1 0-.6-.4-1-1-1-.5 0-1 .4-1 1m105 0c0 .5.5 1 1 1 .6 0 1-.5 1-1 0-.6-.4-1-1-1-.5 0-1 .4-1 1m8 0c0 .5.5 1 1 1 .6 0 1-.5 1-1 0-.6-.4-1-1-1-.5 0-1 .4-1 1m6 0c0 .5.5 1 1 1 .6 0 1-.5 1-1 0-.6-.4-1-1-1-.5 0-1 .4-1 1m8 0c0 .5.5 1 1 1 .6 0 1-.5 1-1 0-.6-.4-1-1-1-.5 0-1 .4-1 1m8 0c0 .5.5 1 1 1 .6 0 1-.5 1-1 0-.6-.4-1-1-1-.5 0-1 .4-1 1m14 0c0 .5.5 1 1 1 .6 0 1-.5 1-1 0-.6-.4-1-1-1-.5 0-1 .4-1 1m50 0c0 .5.5 1 1.1 1 .5 0 .7-.5.4-1-.3-.6-.8-1-1.1-1-.2 0-.4.4-.4 1m11.5 0c-.3.5-.1 1 .4 1 .6 0 1.1-.5 1.1-1 0-.6-.2-1-.4-1-.3 0-.8.4-1.1 1m7.5 0c0 .5.5 1 1 1 .6 0 1-.5 1-1 0-.6-.4-1-1-1-.5 0-1 .4-1 1m-222 19.4c0 .8-.8 1.7-1.7 2-1.3.5-1.4.9-.4 1.9 1 .9 1.5.8 2.5-.6.7-.9 1.8-1.7 2.5-1.7.6 0 1.1-.7 1.1-1.5s-.9-1.5-2-1.5-2 .6-2 1.4m-78 22.1c0 .8-.7 1.5-1.5 1.5-1 0-1.5 1.1-1.5 3.5s.5 3.5 1.5 3.5c.8 0 1.5-.7 1.5-1.5s.7-1.5 1.5-1.5c1 0 1.5-1.1 1.5-3.5s-.5-3.5-1.5-3.5c-.8 0-1.5.7-1.5 1.5m277 12c0 5.1-.3 6.5-1.5 6.5-2.1 0-1.9 1.6.5 4s4 2.6 4 .5c0-.8-.7-1.5-1.5-1.5s-1.5-.7-1.5-1.5.7-1.5 1.5-1.5c1.2 0 1.5-1.4 1.5-6.5s-.3-6.5-1.5-6.5-1.5 1.4-1.5 6.5m-34 .5c0 1.6-.4 3-1 3-.5 0-1-.9-1-2s-.7-2-1.5-2c-1.1 0-1.5 1.1-1.5 4 0 3.8.1 4 2.5 3.4 2.2-.6 2.5-.3 2.5 2.4 0 2.1.6 3.1 2 3.5 1.9.5 2 1.3 2 14.9 0 16.9-.4 18.8-3.6 18.8-1.7 0-2.3-.6-2.6-2.7-.6-4.8-2.8-3.9-2.8 1.1v4.5l4.3.3c3.4.2 4.2.7 4.2 2.3 0 1.1-.6 1.9-1.2 1.7-.8-.1-1.3.9-1.3 2.8 0 3.6.3 3.7 3.2.8 2-2 2.2-3.2 2.6-23.5.3-11.7.9-21.3 1.3-21.3.5 0 .9 2.2.9 5 0 3.6.4 5 1.4 5 .8 0 1.7.8 2 1.7 1.2 3 2.7-.2 2.4-4.8-.2-3.7-.7-4.5-2.5-4.7-1.7-.3-2.3-1-2.3-2.8 0-2-.5-2.4-3-2.4q-3 0-3-1.5c0-.8-.7-1.5-1.5-1.5s-1.5-.7-1.5-1.5.7-1.5 1.5-1.5 1.5.7 1.5 1.5.7 1.5 1.5 1.5 1.5-.7 1.5-1.5-.7-1.5-1.5-1.5q-1.5 0-1.5-3c0-2.3-.4-3-2-3s-2 .7-2 3m-248.5 0c-.7 1.2.2 3 1.6 3 1.2 0 1.2-2.7 0-3.5-.5-.3-1.2-.1-1.6.5m212.5 4.9c0 4.8.3 6.1 1.5 6.1s1.5 1.3 1.5 5.5c0 4.8.2 5.5 2 5.5 1.7 0 2 .7 2 4.5 0 3.3.4 4.5 1.5 4.5 1 0 1.5 1 1.5 2.9 0 6.8 2.2 11.7 3.3 7.3.4-1.6.5-1.6.6 0 0 1 .8 1.8 1.6 1.8.9 0 1.2-.6.9-1.5-.4-.8-.1-1.5.5-1.5s1.1.7 1.1 1.5.5 1.5 1 1.5c.6 0 1-.7 1-1.5s.5-1.5 1-1.5c.6 0 1-2 1-4.5 0-4.3-.1-4.5-3-4.5-2.7 0-3 .3-3 3 0 1.6-.4 3-1 3-.5 0-1-1.4-1-3 0-2.3-.4-3-2-3-1.8 0-2-.7-2-5.5s-.2-5.5-2-5.5-2-.7-2-7c0-5.4-.3-7-1.4-7-.9 0-1.6-1.2-1.8-3.2-.2-1.7-.9-3.3-1.5-3.6-1-.3-1.3 1.3-1.3 5.7M139 337q0 3 1.5 3t1.5-3-1.5-3-1.5 3"/><path d="M358 335.5c0 .8.7 1.5 1.5 1.5s1.5.7 1.5 1.5.6 1.5 1.4 1.5c.9 0 1.5 2 1.8 7 .3 3.9.8 7.3 1.1 7.6 1.6 1.6 2.7-1.5 2.7-7.7 0-5.5-.3-6.9-1.5-6.9-.8 0-1.5-.7-1.5-1.5s-.7-1.5-1.5-1.5-1.5-.7-1.5-1.5-.9-1.5-2-1.5-2 .7-2 1.5m-275 4c0 2 .5 2.5 2.5 2.5 1.8 0 2.5.5 2.5 2 0 1.1.7 2 1.5 2s1.5-.9 1.5-2-.4-2-1-2c-.5 0-1-1.1-1-2.5 0-2.1-.5-2.5-3-2.5s-3 .4-3 2.5m321 2c0 3.3.4 4.5 1.5 4.5.8 0 1.5-.9 1.5-2s.5-2 1-2c.6 0 1 .9 1 2s.5 2 1 2c.6 0 1-2 1-4.5 0-4.5 0-4.5-3.5-4.5s-3.5 0-3.5 4.5m-25.5.5c.4.6 1.1.8 1.6.5 1.4-.9 1.1-1.5-.7-1.5-.8 0-1.2.5-.9 1m2.5 6.9c0 4.3.4 6 1.5 6.5.9.3 1.5 1.9 1.6 3.8 0 3 .1 3.1.9 1 .6-1.5 1.8-2.2 3.6-2.2 3.7 0 2.5-2.4-1.4-2.8-3.2-.3-3.2-.3-3.2-6.3 0-4.6-.3-5.9-1.5-5.9s-1.5 1.3-1.5 5.9m-36-.4c0 .8.5 1.5 1 1.5.6 0 1-.7 1-1.5s-.4-1.5-1-1.5c-.5 0-1 .7-1 1.5m-205 .5c0 .5.5 1 1 1 .6 0 1-.5 1-1 0-.6-.4-1-1-1-.5 0-1 .4-1 1m254 6c0 5.4-.4 7.2-1.5 7.6-.8.4-1.5 1.2-1.5 2 0 1 1.3 1.4 4.5 1.4 3.3 0 4.5-.4 4.5-1.5 0-.8-.7-1.5-1.5-1.5-1.2 0-1.5-1.5-1.5-7.5s-.3-7.5-1.5-7.5-1.5 1.4-1.5 7m-36.7-1.3c-1.9.7-1.7 8.3.2 8.3 1.1 0 1.5-1.2 1.5-4.5 0-2.5-.1-4.5-.2-4.4-.2 0-.9.3-1.5.6m-266 4c-1.6 3.2-1.7 7.3-.3 7.3.6 0 1-1.6 1-3.5 0-3.2.2-3.5 3-3.5q3 0 3-1.5c0-1-1-1.5-2.7-1.5-2.1 0-3.1.7-4 2.7m64.7.8c0 4 2.5 4.9 3.2 1.2.6-3-.1-4.7-1.8-4.7-.9 0-1.4 1.1-1.4 3.5m6.2-.4c.3 2 0 3.3-.9 3.6-1.8.7-1.7 3.3.2 3.3.8 0 1.5-.7 1.5-1.5s.7-1.5 1.5-1.5c1 0 1.5-1.1 1.5-3.5 0-2.9-.4-3.5-2.1-3.5-1.8 0-2.1.5-1.7 3.1M99 360c0 1.1.5 2 1 2 .6 0 1-.9 1-2s-.4-2-1-2c-.5 0-1 .9-1 2m151 1.5c0 2.4.5 3.5 1.5 3.5s1.5-1.1 1.5-3.5-.5-3.5-1.5-3.5-1.5 1.1-1.5 3.5m-155 2c0 .8.5 1.5 1 1.5.6 0 1-.7 1-1.5s-.4-1.5-1-1.5c-.5 0-1 .7-1 1.5m47 3.5c0 1.1.7 2 1.5 2s1.5-.9 1.5-2-.7-2-1.5-2-1.5.9-1.5 2m203-.5c0 .8.7 1.5 1.5 1.5.9 0 1.2-.6.9-1.5-.4-.8-1-1.5-1.5-1.5s-.9.7-.9 1.5m56.3 3.5c0 2.5.2 3.5.4 2.2.2-1.2.2-3.2 0-4.5-.2-1.2-.4-.2-.4 2.3m-220.8-1c-.8 1.3-.1 2.4 1.4 1.9.6-.3.7-1 .2-1.8-.6-1-1-1-1.6-.1m213 0c-.9 1.5.4 3 2.6 3 1.2 0 1.9-.7 1.9-2 0-2.1-3.3-2.9-4.5-1m-1.5 6.5c0 1.1 1.1 1.5 4 1.5s4-.4 4-1.5-1.1-1.5-4-1.5-4 .4-4 1.5M183 382c0 2.7.5 5 1 5 .6 0 1-2.3 1-5 0-2.8-.4-5-1-5-.5 0-1 2.2-1 5m173 2.5c0 1.9.5 3.5 1 3.5.6 0 1-1.6 1-3.5s-.4-3.5-1-3.5c-.5 0-1 1.6-1 3.5m-206 1c0 .8.7 1.5 1.5 1.5s1.5-.7 1.5-1.5-.7-1.5-1.5-1.5-1.5.7-1.5 1.5m182 3c0 4.7 1.4 6.1 2.4 2.3.4-1.7.8-2 1.7-1.1.8.8.8 1.6 0 3.2-1 1.8-.9 2.1.9 2.1 1.6 0 2-.6 2-3.1 0-1.7.4-2.8 1-2.4.6.3 1 1.7 1 3.1 0 1.3.4 2.4.9 2.4 1.3 0 2.1-2.7 2.1-7.1 0-3.7-.2-3.9-3-3.9q-3 0-3 1.5c0 .8-.7 1.5-1.5 1.5s-1.5-.7-1.5-1.5-.7-1.5-1.5-1.5c-1.1 0-1.5 1.2-1.5 4.5m-93.9 1.2c-.1 5.4 1.5 7.4 2.1 2.6.4-3.2 2.8-4.4 2.8-1.4 0 2.8 4 2.9 4.7.1.8-3 2.3-2.4 2.3 1 0 2.9-.2 3-4.5 3-3.3 0-4.5.4-4.5 1.5s1.2 1.5 4.5 1.5 4.5-.4 4.5-1.5c0-.8.7-1.5 1.5-1.5.9 0 1.5-.9 1.5-2.4 0-4.4-1-5.6-4.7-5.6-2 0-3.2-.4-2.8-1 .3-.6.1-1-.4-1-.6 0-1.1.4-1.1 1 0 1.5-4.7 1.2-5.3-.3-.3-.6-.6 1.2-.6 4M130 390.8c0 2.3.4 4.2 1 4.2 1 0 .8-6.6-.3-7.6-.4-.4-.7 1.1-.7 3.4m3.2.4c.6 1.8 2.5 2 3.1.3.5-1 0-1.5-1.4-1.5-1.2 0-1.9.5-1.7 1.2m87.8-.2c0 .5.5 1 1 1 .6 0 1-.5 1-1 0-.6-.4-1-1-1-.5 0-1 .4-1 1m-81 3c0 .5.5 1 1 1 .6 0 1-.5 1-1 0-.6-.4-1-1-1-.5 0-1 .4-1 1m-28 3c0 1.3.7 2 2 2s2-.7 2-2-.7-2-2-2-2 .7-2 2m54.7-1.3c-.4.3-.7 2.9-.7 5.7 0 10.4 2.1 16.1 3.6 10.1.7-3 2.8-2.8 3.2.3.5 3 2.2 2.8 2.2-.3 0-1.4.4-2.5.9-2.5s1.2 1.1 1.5 2.5c1 3.8 2.6 3 2.7-1.3.4-15.1.4-14.7-2.4-15-1.9-.2-2.7.1-2.7 1.2 0 .9.7 1.6 1.5 1.6 1.1 0 1.5 1.2 1.5 4.5 0 2.5-.4 4.5-1 4.5-.5 0-1-1.4-1-3 0-2.5-.4-3-2.5-3s-2.5.5-2.5 3c0 1.6-.4 3-1 3-.5 0-1-2-1-4.5 0-3.8.3-4.5 2-4.5 1.1 0 2-.7 2-1.5 0-1.5-5-2.2-6.3-.8m116.6 0c-.8.3-1.3 2.4-1.3 5.6v5.2l6.4-.3c5.5-.3 6.5-.1 6.9 1.5.3 1 .4-.9.4-4.2 0-3.9-.2-4.7-.4-2.2l-.4 3.8-5.2-.3c-5.1-.3-5.2-.4-5.5-3.6-.2-1.8.1-3.2.7-3.2s1.1-.7 1.1-1.5c0-1.5-.6-1.7-2.7-.8"/><path d="M292 396.6c0 .9.5 1.4 1.2 1.2 1.8-.6 2.1-2.8.4-2.8-.9 0-1.6.7-1.6 1.6m78 .4c0 1.3.7 2 2 2s2-.7 2-2-.7-2-2-2-2 .7-2 2m-237 2.5q0 1.5 3 1.5t3-1.5-3-1.5-3 1.5m232.6-.6c-.4.7-.5 1.5-.2 1.8.9.9 1.9-.4 1.4-1.8-.4-1.1-.6-1.1-1.2 0m11.7.6c0 .8.4 1.5.9 1.5.4 0 .8-.7.8-1.5s-.4-1.5-.8-1.5c-.5 0-.9.7-.9 1.5m-164.3 4c0 1.9-.4 3.5-1 3.5-.5 0-1 .4-1 1 0 .5 2 1 4.5 1 4.4 0 4.5-.1 4.4-3.3-.1-2.9-.2-2.9-.8-.8-1.2 4.2-3.1 3.7-3.1-.8 0-3-.4-4.1-1.5-4.1-1 0-1.5 1.1-1.5 3.5m-102.5-.5c.3.5 2.2 1 4.1 1s3.4-.5 3.4-1c0-.6-1.8-1-4.1-1-2.4 0-3.8.4-3.4 1m198.5 2.5c0 2.4.5 3.5 1.5 3.5.8 0 1.5.9 1.5 2s.5 2 1 2c.6 0 1-.9 1-2s.7-2 1.5-2 1.5.9 1.5 2 .5 2 1.1 2 1.3-.9 1.6-2 .9-2 1.4-2 .9-1.6.9-3.5c0-2.8-.4-3.5-1.9-3.5-1 0-2.1.7-2.5 1.5-.7 1.8-3.6 2-3.6.2 0-.7-1.1-1.4-2.5-1.5-2.2-.2-2.5.2-2.5 3.3m59-2.5c0 .5 1.8 1 4 1s4-.5 4-1c0-.6-1.8-1-4-1s-4 .4-4 1m-159 2.6c0 .8.5 1.2 1 .9.6-.4.8-1.1.5-1.6-.9-1.4-1.5-1.1-1.5.7m18 6.9c0 4.6 1.6 6.3 2.2 2.3.5-3.2 2.8-3.5 2.8-.4 0 1.4.5 2.6 1 2.6.6 0 1-1.1 1-2.5 0-1.6.6-2.5 1.5-2.5s1.5.9 1.5 2.5c0 1.4.5 2.5 1 2.5.6 0 1-2 1-4.5V408h-12zm58-2.5c0 .5 1.8 1 4 1s4-.5 4-1c0-.6-1.8-1-4-1s-4 .4-4 1"/></g></svg>