<?xml version="1.0" standalone="no"?>
<!DOCTYPE svg PUBLIC "-//W3C//DTD SVG 20010904//EN"
 "http://www.w3.org/TR/2001/REC-SVG-20010904/DTD/svg10.dtd">
<svg version="1.0" xmlns="http://www.w3.org/2000/svg"
 width="500.000000pt" height="500.000000pt" viewBox="0 0 500.000000 500.000000"
 preserveAspectRatio="xMidYMid meet">

<g transform="translate(0.000000,500.000000) scale(0.100000,-0.100000)"
fill="#4CAF50" stroke="none">
<path d="M2000 4105 l0 -215 105 0 105 0 0 110 0 110 330 0 330 0 0 -220 0
-220 110 0 110 0 0 325 0 325 -545 0 -545 0 0 -215z"/>
<path d="M2660 3340 l0 -320 105 0 105 0 0 320 0 320 -105 0 -105 0 0 -320z"/>
<path d="M2440 2795 l0 -215 105 0 105 0 0 215 0 215 -105 0 -105 0 0 -215z"/>
<path d="M2220 2245 l0 -325 105 0 105 0 0 325 0 325 -105 0 -105 0 0 -325z"/>
<path d="M2000 1595 l0 -325 545 0 545 0 0 215 0 215 -110 0 -110 0 0 -110 0
-110 -330 0 -330 0 0 220 0 220 -105 0 -105 0 0 -325z"/>
</g>
</svg>
